<?xml version="1.0" encoding="utf-8"?>
<!-- Generator: Adobe Illustrator 16.0.0, SVG Export Plug-In . SVG Version: 6.00 Build 0)  -->
<!DOCTYPE svg PUBLIC "-//W3C//DTD SVG 1.1//EN" "http://www.w3.org/Graphics/SVG/1.1/DTD/svg11.dtd">
<svg version="1.1" id="Layer_1" xmlns="http://www.w3.org/2000/svg" xmlns:xlink="http://www.w3.org/1999/xlink" x="0px" y="0px"
	 width="20px" height="20px" viewBox="0 0 20 20" enable-background="new 0 0 20 20" xml:space="preserve">
<path fill="#F5A706" d="M1,0h7.231c0.552,0,1,0.448,1,1v7.231c0,0.552-0.448,1-1,1H1c-0.552,0-1-0.448-1-1V1C0,0.448,0.448,0,1,0z"
	/>
<path fill="#FFE1B6" d="M11.77,0H19c0.553,0,1,0.448,1,1v7.231c0,0.552-0.447,1-1,1h-7.23c-0.553,0-1-0.448-1-1V1
	C10.77,0.448,11.217,0,11.77,0z"/>
<path fill="#FFE1B6" d="M1,10.77h7.231c0.552,0,1,0.447,1,1V19c0,0.553-0.448,1-1,1H1c-0.552,0-1-0.447-1-1v-7.23
	C0,11.217,0.448,10.77,1,10.77z"/>
<path fill="#F5A706" d="M11.77,10.77H19c0.553,0,1,0.447,1,1V19c0,0.553-0.447,1-1,1h-7.23c-0.553,0-1-0.447-1-1v-7.23
	C10.77,11.217,11.217,10.77,11.77,10.77z"/>
</svg>
