<svg width="40" height="40" viewBox="0 0 40 40" fill="none" xmlns="http://www.w3.org/2000/svg">
<path d="M33.3333 20C33.3333 18.1667 34.8333 16.6667 36.6667 16.6667V9.99999C36.6667 8.16666 35.1667 6.66666 33.3333 6.66666H6.66667C4.83334 6.66666 3.35 8.16666 3.35 9.99999V16.6667C5.18334 16.6667 6.66667 18.1667 6.66667 20C6.66667 21.8333 5.18334 23.3333 3.33334 23.3333V30C3.33334 31.8333 4.83334 33.3333 6.66667 33.3333H33.3333C35.1667 33.3333 36.6667 31.8333 36.6667 30V23.3333C34.8333 23.3333 33.3333 21.8333 33.3333 20ZM25.9667 28L20 24.1667L14.0333 28L15.8333 21.1333L10.35 16.65L17.4167 16.2333L20 9.66666L22.5667 16.25L29.6333 16.6667L24.15 21.15L25.9667 28Z" fill="url(#paint0_linear)"/>
<defs>
<linearGradient id="paint0_linear" x1="17.5" y1="33" x2="17.5" y2="8" gradientUnits="userSpaceOnUse">
<stop stop-color="#DE9A0C"/>
<stop offset="0.489583" stop-color="#F5A706"/>
<stop offset="1" stop-color="#FFD84E"/>
</linearGradient>
</defs>
</svg>
