<?xml version="1.0" encoding="utf-8"?>
<!-- Generator: Adobe Illustrator 16.0.0, SVG Export Plug-In . SVG Version: 6.00 Build 0)  -->
<!DOCTYPE svg PUBLIC "-//W3C//DTD SVG 1.1//EN" "http://www.w3.org/Graphics/SVG/1.1/DTD/svg11.dtd">
<svg version="1.1" id="Layer_1" xmlns="http://www.w3.org/2000/svg" xmlns:xlink="http://www.w3.org/1999/xlink" x="0px" y="0px"
	 width="40px" height="40px" viewBox="0 0 40 40" enable-background="new 0 0 40 40" xml:space="preserve">
<g>
	<path fill-rule="evenodd" clip-rule="evenodd" fill="#F5A921" d="M38.698,20.381c0,0.442,0,0.885,0,1.326
		c-0.872,0.336-1.745,0.651-2.692,0.73c-0.258,0.021-0.1,0.35-0.151,0.532c-0.113,0.388-0.007,0.595,0.422,0.733
		c0.581,0.187,1.1,0.533,1.592,0.91c0.271,0.208,0.387,0.455,0.271,0.763c-0.136,0.359-0.105,0.845-0.679,0.903
		c-0.589,0.061-1.184,0.117-1.762,0.012c-0.547-0.099-0.796,0.08-0.958,0.588c-0.085,0.263-0.07,0.365,0.157,0.529
		c0.536,0.384,1.02,0.834,1.409,1.374c0.349,0.483-0.005,1.479-0.582,1.636c-0.042,0.011-0.096,0.024-0.128,0.008
		c-0.519-0.259-1.118-0.213-1.644-0.457c-0.77-0.357-0.768-0.339-1.258,0.325c-0.148,0.201-0.157,0.338,0.021,0.521
		c0.378,0.392,0.658,0.851,0.879,1.352c0.378,0.859,0.345,1.015-0.393,1.606c-0.126,0.101-0.231,0.156-0.396,0.093
		c-0.575-0.222-1.138-0.466-1.635-0.836c-0.637-0.476-0.625-0.464-1.264-0.03c-0.213,0.145-0.227,0.237-0.117,0.453
		c0.275,0.54,0.419,1.126,0.542,1.716c0.146,0.704,0.138,0.726-0.486,1.124c-0.086,0.055-0.191,0.084-0.265,0.149
		c-0.19,0.171-0.339,0.121-0.543-0.006c-0.595-0.371-1.103-0.842-1.471-1.419c-0.255-0.398-0.48-0.423-0.83-0.209
		c-0.049,0.03-0.1,0.063-0.155,0.079c-0.291,0.084-0.354,0.245-0.307,0.557c0.098,0.625,0.116,1.261,0.022,1.893
		c-0.086,0.579-0.165,0.645-0.863,0.813c-0.399,0.096-0.665-0.047-0.896-0.372c-0.376-0.528-0.705-1.076-0.905-1.695
		c-0.069-0.211-0.203-0.31-0.436-0.266c-0.158,0.03-0.321,0.056-0.481,0.053c-0.226-0.004-0.298,0.088-0.311,0.312
		c-0.036,0.574-0.173,1.131-0.355,1.676c-0.098,0.288-0.334,0.519-0.344,0.842c-0.441,0-0.884,0-1.326,0
		c-0.257-0.651-0.582-1.274-0.647-1.996c-0.073-0.806-0.097-0.792-0.901-0.873c-0.296-0.028-0.408,0.076-0.501,0.348
		c-0.21,0.612-0.551,1.158-0.938,1.68c-0.216,0.292-0.471,0.399-0.797,0.284c-0.381-0.135-0.854-0.149-0.893-0.744
		c-0.037-0.561-0.059-1.117-0.018-1.678c0.052-0.698,0.038-0.679-0.602-0.963c-0.25-0.11-0.341-0.071-0.483,0.146
		c-0.298,0.452-0.66,0.855-1.078,1.208c-0.703,0.591-0.723,0.59-1.526,0.138c-0.275-0.154-0.381-0.367-0.33-0.651
		c0.107-0.588,0.167-1.185,0.443-1.736c0.295-0.591,0.274-0.602-0.254-1.009c-0.036-0.026-0.068-0.056-0.102-0.085
		c-0.211-0.182-0.402-0.189-0.614,0.021c-0.368,0.366-0.822,0.603-1.291,0.817c-0.859,0.394-1.144,0.324-1.67-0.431
		c-0.076-0.11-0.092-0.204-0.047-0.326c0.222-0.607,0.495-1.188,0.884-1.709c0.438-0.589,0.421-0.573,0-1.185
		c-0.178-0.257-0.31-0.282-0.569-0.146c-0.604,0.32-1.268,0.447-1.937,0.559c-0.47,0.08-0.648-0.232-0.846-0.554
		c-0.196-0.317-0.299-0.616-0.023-0.951c0.456-0.557,0.947-1.078,1.555-1.467c0.169-0.107,0.201-0.172,0.116-0.337
		c-0.067-0.129-0.114-0.268-0.163-0.405c-0.098-0.28-0.25-0.409-0.585-0.36c-0.553,0.08-1.113,0.099-1.675,0.044
		c-0.816-0.081-0.891-0.142-1.045-0.962c-0.054-0.286,0-0.51,0.24-0.696c0.43-0.333,0.877-0.638,1.377-0.854
		c0.726-0.315,0.708-0.313,0.68-1.079c-0.011-0.297-0.138-0.366-0.392-0.398c-0.655-0.083-1.304-0.191-1.917-0.461
		c-0.167-0.073-0.31-0.247-0.527-0.179c0-0.471,0-0.943,0-1.414c0.727-0.261,1.433-0.626,2.216-0.647
		c0.538-0.015,0.65-0.237,0.639-0.718C6.15,18.61,6.135,18.423,5.78,18.309c-0.602-0.191-1.13-0.545-1.645-0.911
		c-0.324-0.23-0.389-0.543-0.269-0.894c0.124-0.36,0.155-0.791,0.712-0.811c0.53-0.018,1.056-0.076,1.588-0.021
		c0.772,0.079,0.76,0.066,1.095-0.664c0.095-0.207,0.096-0.274-0.11-0.404c-0.471-0.298-0.873-0.687-1.246-1.103
		c-0.577-0.644-0.573-0.709-0.165-1.48c0.164-0.311,0.384-0.434,0.709-0.38c0.635,0.105,1.284,0.185,1.849,0.52
		c0.345,0.205,0.57,0.173,0.746-0.193c0.05-0.104,0.126-0.2,0.208-0.282c0.207-0.207,0.147-0.387-0.028-0.572
		c-0.389-0.408-0.638-0.904-0.889-1.402C8.09,9.229,8.009,8.796,8.526,8.428c0.086-0.062,0.122-0.194,0.18-0.294
		c0.315-0.139,0.588,0.061,0.88,0.11c0.042,0.01,0.083,0.021,0.124,0.031c0.196,0.167,0.423,0.272,0.67,0.338
		c0.23,0.178,0.496,0.324,0.683,0.539c0.421,0.484,0.643,0.012,0.946-0.147c0.358-0.187,0.159-0.423,0.069-0.632
		c-0.188-0.433-0.346-0.875-0.434-1.335c-0.182-0.953-0.083-1.124,0.775-1.535c0.163-0.078,0.286-0.084,0.444,0.024
		c0.563,0.391,1.109,0.795,1.465,1.398c0.208,0.352,0.449,0.552,0.852,0.261c0.07-0.051,0.153-0.099,0.236-0.114
		c0.295-0.055,0.315-0.244,0.282-0.491C15.61,5.922,15.625,5.266,15.673,4.6c0.035-0.495,0.331-0.598,0.693-0.704
		c0.349-0.103,0.68-0.17,0.954,0.179c0.335,0.429,0.632,0.878,0.844,1.379c0.32,0.753,0.314,0.747,1.127,0.677
		c0.221-0.019,0.292-0.091,0.319-0.312c0.066-0.538,0.174-1.07,0.328-1.593c0.094-0.319,0.382-0.561,0.355-0.924
		c0.471,0,0.943,0,1.414,0c0.011,0.085-0.008,0.188,0.034,0.253c0.416,0.652,0.515,1.397,0.638,2.135
		c0.036,0.213-0.01,0.484,0.334,0.431c0.33-0.052,0.769,0.305,0.959-0.296c0.19-0.604,0.542-1.133,0.906-1.649
		c0.235-0.333,0.544-0.438,0.922-0.311c0.378,0.127,0.783,0.179,0.821,0.754c0.041,0.636,0.064,1.268-0.03,1.894
		c-0.054,0.349,0.06,0.522,0.368,0.619c0.11,0.035,0.237,0.056,0.328,0.123c0.242,0.182,0.37,0.081,0.515-0.138
		c0.396-0.605,0.911-1.094,1.488-1.531c0.296-0.224,0.513-0.118,0.751,0.033c0.286,0.181,0.666,0.265,0.648,0.736
		c-0.025,0.687-0.191,1.335-0.489,1.948c-0.167,0.346-0.206,0.626,0.198,0.824c0.078,0.038,0.149,0.098,0.208,0.161
		c0.207,0.217,0.382,0.169,0.585-0.021c0.409-0.383,0.885-0.663,1.403-0.883c0.795-0.338,0.805-0.347,1.367,0.277
		c0.04,0.043,0.068,0.099,0.113,0.135c0.18,0.148,0.167,0.324,0.094,0.52c-0.253,0.695-0.595,1.34-1.097,1.886
		c-0.178,0.194-0.176,0.356-0.031,0.543c0.081,0.104,0.198,0.188,0.251,0.304c0.137,0.304,0.309,0.321,0.597,0.177
		c0.62-0.311,1.298-0.442,1.98-0.537c0.335-0.046,0.562,0.09,0.699,0.405c0.145,0.329,0.485,0.595,0.15,1.024
		c-0.392,0.5-0.791,1.004-1.329,1.324c-0.467,0.278-0.453,0.552-0.221,0.938c0.037,0.063,0.077,0.129,0.095,0.198
		c0.056,0.202,0.181,0.246,0.37,0.198c0.581-0.146,1.172-0.104,1.759-0.079c0.743,0.032,0.929,0.221,1.07,0.952
		c0.065,0.331-0.033,0.571-0.298,0.764c-0.451,0.329-0.898,0.688-1.438,0.832c-0.572,0.153-0.701,0.475-0.563,0.991
		c0.004,0.014,0.004,0.03,0.003,0.044c-0.025,0.236,0.073,0.335,0.317,0.36C37.066,19.728,37.909,19.966,38.698,20.381z
		 M20.779,35.061c1.613,0.005,3.179-0.239,4.719-0.753c1.706-0.57,3.239-1.438,4.586-2.591c1.744-1.493,3.066-3.325,3.939-5.464
		c0.14-0.344,0.07-0.56-0.296-0.681c-0.569-0.189-1.136-0.389-1.7-0.595c-0.522-0.189-0.711-0.117-0.931,0.391
		c-0.215,0.496-0.453,0.979-0.739,1.438c-2.54,4.05-7.383,6.157-12.279,4.826c-1.882-0.513-3.491-1.476-4.871-2.831
		c-1.003-0.986-1.776-2.137-2.318-3.44c-0.196-0.471-0.389-0.576-0.802-0.437c-0.625,0.211-1.241,0.446-1.865,0.659
		c-0.333,0.113-0.392,0.342-0.274,0.627c1.225,2.981,3.209,5.322,5.988,6.954C16.041,34.401,18.327,35.046,20.779,35.061z
		 M35.044,20.678c0.019-2.156-0.593-4.466-1.811-6.623c-0.491-0.87-1.078-1.665-1.749-2.402c-0.214-0.236-0.473-0.387-0.758-0.108
		c-0.479,0.468-0.941,0.953-1.415,1.426c-0.304,0.303-0.269,0.594,0.021,0.875c0.316,0.308,0.58,0.66,0.831,1.019
		c1.435,2.055,1.978,4.348,1.824,6.833c-0.031,0.518-0.166,1.017-0.198,1.53c-0.021,0.323,0.026,0.557,0.42,0.646
		c0.599,0.136,1.179,0.349,1.771,0.508c0.538,0.144,0.691,0.026,0.799-0.53C34.963,22.909,35.039,21.958,35.044,20.678z
		 M6.996,20.922c0,0.191,0.003,0.384-0.001,0.575c-0.016,0.844,0.116,1.672,0.296,2.491c0.105,0.479,0.243,0.535,0.72,0.406
		c0.438-0.118,0.873-0.25,1.312-0.367c0.95-0.249,0.989-0.303,0.859-1.26c-0.01-0.073-0.03-0.145-0.042-0.218
		c-0.233-1.382-0.18-2.764,0.124-4.123c0.394-1.762,1.243-3.304,2.457-4.64c0.235-0.258,0.273-0.506,0.016-0.767
		c-0.47-0.477-0.944-0.949-1.412-1.428c-0.231-0.238-0.457-0.226-0.686-0.005c-0.105,0.101-0.207,0.206-0.303,0.316
		C8.079,14.485,7.022,17.513,6.996,20.922z M30.006,10.415c-0.039-0.217-0.204-0.344-0.365-0.468
		c-2.455-1.881-5.219-2.916-8.319-2.994c-1.794-0.044-3.523,0.253-5.216,0.896c-1.401,0.532-2.67,1.244-3.839,2.165
		c-0.306,0.241-0.368,0.462-0.09,0.76c0.443,0.476,0.882,0.957,1.312,1.445c0.233,0.264,0.462,0.314,0.752,0.085
		c1.433-1.125,3.046-1.845,4.843-2.147c1.952-0.329,3.864-0.169,5.727,0.508c1.064,0.387,2.04,0.941,2.936,1.633
		c0.277,0.216,0.517,0.204,0.758-0.075c0.43-0.497,0.882-0.972,1.312-1.467C29.896,10.663,30.003,10.565,30.006,10.415z
		 M22.412,29.735c-0.003,0-0.006,0-0.011,0c0,0.25,0.01,0.501-0.002,0.752c-0.016,0.352,0.171,0.461,0.471,0.376
		c0.66-0.188,1.329-0.354,1.961-0.628c1.43-0.619,2.665-1.514,3.741-2.637c0.321-0.335,0.306-0.53-0.1-0.739
		c-0.545-0.282-1.1-0.549-1.652-0.815c-1.107-0.535-2.214-1.07-3.326-1.596c-0.377-0.177-0.676-0.04-0.702,0.31
		C22.662,26.416,22.538,28.075,22.412,29.735z M19.584,12.186c0-0.012-0.001-0.057,0-0.101c0.029-1.063,0.023-1.083-0.985-0.825
		c-2.057,0.528-3.771,1.638-5.222,3.17c-0.274,0.29-0.242,0.511,0.117,0.685c1.67,0.811,3.344,1.613,5.022,2.409
		c0.389,0.184,0.666,0.015,0.7-0.416C19.344,15.479,19.461,13.848,19.584,12.186z M31.039,20.898
		c-0.053-0.913-0.183-1.926-0.442-2.93c-0.178-0.691-0.353-0.821-1.009-0.359c-1.373,0.968-2.77,1.901-4.161,2.842
		c-0.484,0.328-0.547,0.649-0.087,1.002c0.572,0.44,1.205,0.804,1.805,1.209c0.873,0.59,1.736,1.193,2.611,1.779
		c0.394,0.265,0.665,0.201,0.767-0.165C30.819,23.209,31.008,22.125,31.039,20.898z M19.703,30.25
		c-0.074-0.556-0.098-1.188-0.138-1.819c-0.072-1.129-0.191-2.256-0.267-3.386c-0.043-0.646-0.428-0.696-0.915-0.464
		c-0.977,0.463-1.941,0.951-2.912,1.427c-0.577,0.282-1.153,0.561-1.733,0.837c-0.582,0.279-0.61,0.444-0.14,0.908
		c0.146,0.146,0.298,0.284,0.445,0.429c1.391,1.368,3.083,2.189,4.94,2.703C19.561,31.045,19.733,30.896,19.703,30.25z M10.954,21.1
		c0.079,0.99,0.14,2.089,0.496,3.139c0.142,0.42,0.358,0.479,0.739,0.275c0.103-0.055,0.199-0.123,0.296-0.19
		c1.334-0.919,2.666-1.843,4.003-2.759c0.637-0.436,0.639-0.677-0.009-1.121c-0.805-0.553-1.606-1.11-2.412-1.663
		c-0.615-0.421-1.229-0.844-1.854-1.251c-0.391-0.255-0.647-0.176-0.753,0.205C11.161,18.801,10.995,19.887,10.954,21.1z
		 M22.401,12.187c-0.017,0.785,0.201,1.553,0.187,2.335c-0.015,0.799,0.143,1.584,0.176,2.379c0.026,0.596,0.322,0.772,0.873,0.523
		c0.348-0.157,0.683-0.338,1.026-0.504c1.224-0.591,2.449-1.178,3.673-1.77c0.568-0.275,0.594-0.438,0.154-0.883
		c-0.452-0.458-0.933-0.879-1.439-1.275c-1.202-0.938-2.582-1.486-4.029-1.885c-0.511-0.14-0.629-0.024-0.62,0.505
		C22.404,11.804,22.401,11.995,22.401,12.187z M17.463,20.99c-0.001,1.933,1.593,3.539,3.517,3.542
		c1.906,0.004,3.545-1.634,3.54-3.535c-0.006-1.895-1.657-3.548-3.552-3.52C19.045,17.506,17.488,19.054,17.463,20.99z"/>
	<path fill-rule="evenodd" clip-rule="evenodd" fill="#FAF8ED" d="M20.779,35.061c-2.453-0.015-4.739-0.659-6.844-1.896
		c-2.779-1.632-4.763-3.973-5.988-6.954c-0.118-0.285-0.058-0.514,0.274-0.627c0.624-0.213,1.24-0.448,1.865-0.659
		c0.414-0.14,0.606-0.034,0.802,0.437c0.542,1.304,1.315,2.454,2.318,3.44c1.38,1.355,2.989,2.318,4.871,2.831
		c4.896,1.331,9.739-0.776,12.279-4.826c0.286-0.458,0.524-0.941,0.739-1.438c0.22-0.508,0.408-0.58,0.931-0.391
		c0.564,0.206,1.131,0.405,1.7,0.595c0.366,0.121,0.436,0.337,0.296,0.681c-0.873,2.139-2.195,3.971-3.939,5.464
		c-1.347,1.153-2.88,2.021-4.586,2.591C23.958,34.821,22.393,35.065,20.779,35.061z M18.634,33.275
		c0.145,0.087,0.196,0.217,0.252,0.354c0.115,0.284,0.234,0.567,0.376,0.84c0.063,0.119,0.152,0.274,0.335,0.229
		c0.163-0.042,0.211-0.174,0.227-0.335c0.054-0.556,0.125-1.109,0.178-1.663c0.012-0.135,0.055-0.319-0.174-0.335
		c-0.242-0.016-0.232,0.163-0.246,0.329c-0.022,0.27-0.054,0.539-0.093,0.917c-0.124-0.187-0.198-0.273-0.245-0.373
		c-0.129-0.275-0.247-0.555-0.367-0.835c-0.066-0.152-0.192-0.213-0.345-0.232c-0.109-0.014-0.155,0.048-0.176,0.147
		c-0.127,0.601-0.256,1.202-0.385,1.803c-0.03,0.143-0.028,0.26,0.156,0.301c0.181,0.039,0.212-0.073,0.275-0.201
		C18.55,33.926,18.461,33.576,18.634,33.275z M10.863,28.309c0.089,0.16,0.012,0.271-0.032,0.396
		c-0.107,0.301-0.193,0.61-0.289,0.916c-0.053,0.167,0.027,0.282,0.149,0.38c0.151,0.12,0.235-0.007,0.334-0.091
		c0.421-0.356,0.848-0.708,1.266-1.068c0.083-0.073,0.272-0.124,0.121-0.303c-0.13-0.152-0.264-0.164-0.414-0.025
		c-0.126,0.116-0.232,0.26-0.417,0.302c-0.066,0.015-0.128,0.092-0.194,0.024c-0.054-0.056-0.046-0.129-0.018-0.205
		c0.098-0.26,0.19-0.521,0.282-0.782c0.054-0.157-0.005-0.305-0.104-0.406c-0.136-0.143-0.236,0.025-0.335,0.09
		c-0.462,0.304-0.92,0.612-1.376,0.925c-0.104,0.071-0.251,0.157-0.11,0.311c0.104,0.112,0.202,0.231,0.39,0.063
		C10.342,28.635,10.61,28.483,10.863,28.309z M29.373,30.238c-0.402-0.097-0.758-0.178-1.107-0.271
		c-0.153-0.041-0.26,0.035-0.353,0.122c-0.076,0.072-0.016,0.175,0.033,0.239c0.362,0.49,0.729,0.978,1.103,1.46
		c0.067,0.087,0.145,0.188,0.277,0.043c0.08-0.088,0.151-0.111,0.088-0.271c-0.092-0.235-0.274-0.375-0.417-0.558
		c-0.053-0.067-0.193-0.138-0.085-0.254c0.063-0.069,0.176-0.06,0.25-0.016c0.285,0.174,0.629,0.122,0.923,0.256
		c0.206,0.095,0.342-0.042,0.447-0.177c0.117-0.148-0.039-0.23-0.127-0.323c-0.391-0.412-0.78-0.823-1.172-1.235
		c-0.095-0.1-0.175-0.19-0.316-0.027c-0.115,0.135-0.096,0.205,0.012,0.326C29.098,29.743,29.342,29.886,29.373,30.238z
		 M17.157,33.5c-0.067-0.211,0.024-0.374,0.279-0.538c0.353-0.229,0.344-0.707,0.01-0.97c-0.263-0.206-0.576-0.332-0.903-0.416
		c-0.169-0.043-0.242,0.038-0.3,0.176c-0.219,0.524-0.433,1.053-0.668,1.57c-0.081,0.179-0.009,0.225,0.133,0.285
		c0.146,0.063,0.25,0.068,0.311-0.104c0.044-0.123,0.092-0.245,0.151-0.36c0.059-0.113,0.039-0.337,0.271-0.247
		c0.166,0.064,0.311,0.153,0.293,0.38c-0.015,0.19,0.001,0.383,0.008,0.573c0.007,0.194,0.141,0.245,0.302,0.239
		c0.177-0.007,0.153-0.146,0.147-0.261C17.188,33.741,17.174,33.652,17.157,33.5z M28.092,32.011
		c-0.001-0.624-0.491-1.106-1.116-1.099c-0.606,0.008-1.06,0.472-1.069,1.095c-0.012,0.606,0.463,1.122,1.047,1.137
		C27.589,33.16,28.093,32.659,28.092,32.011z M31.785,29.004c0.174,0.088,0.291,0.007,0.364-0.136
		c0.062-0.123-0.029-0.188-0.138-0.224c-0.598-0.194-1.196-0.386-1.794-0.583c-0.225-0.074-0.315,0.092-0.427,0.224
		c-0.131,0.152-0.017,0.244,0.066,0.37c0.296,0.448,0.578,0.907,0.853,1.369c0.075,0.128,0.118,0.298,0.299,0.235
		c0.187-0.064,0.179-0.202,0.107-0.39C31.001,29.568,31.479,28.981,31.785,29.004z M22.389,34.431
		c-0.299-0.608-0.487-1.29-0.873-1.876c-0.108-0.165-0.523-0.054-0.583,0.165c-0.151,0.557-0.346,1.098-0.55,1.636
		c-0.03,0.08-0.04,0.214,0.087,0.263c0.093,0.037,0.165-0.01,0.23-0.08c0.355-0.384,0.872-0.392,1.262-0.013
		c0.101,0.099,0.207,0.093,0.323,0.077C22.373,34.591,22.41,34.539,22.389,34.431z M14.881,32.141
		c0.099,0.011,0.13-0.084,0.184-0.149c0.09-0.107,0.006-0.149-0.073-0.196c-0.1-0.059-0.196-0.126-0.298-0.181
		c-0.178-0.097-0.151-0.217-0.07-0.368c0.096-0.181,0.198-0.107,0.323-0.042c0.18,0.097,0.367,0.18,0.552,0.267
		c0.133,0.063,0.234,0.009,0.298-0.104c0.073-0.129-0.047-0.194-0.125-0.243c-0.282-0.179-0.574-0.343-0.86-0.515
		c-0.145-0.089-0.252-0.104-0.364,0.069c-0.316,0.491-0.646,0.973-0.982,1.45c-0.085,0.122-0.099,0.22,0.023,0.299
		c0.341,0.222,0.691,0.431,1.034,0.651c0.122,0.077,0.195,0.011,0.261-0.071c0.078-0.099,0.003-0.167-0.07-0.215
		c-0.157-0.102-0.312-0.22-0.485-0.284c-0.31-0.119-0.326-0.26-0.121-0.504c0.138-0.165,0.236-0.242,0.42-0.066
		C14.618,32.027,14.752,32.069,14.881,32.141z M12.029,31.39c0.211-0.005,0.257-0.086,0.313-0.151
		c0.234-0.279,0.481-0.549,0.702-0.839c0.204-0.268,0.404-0.367,0.671-0.09c0.11,0.113,0.248,0.132,0.346,0.006
		c0.105-0.134,0.013-0.226-0.107-0.321c-0.309-0.242-0.598-0.511-0.906-0.756c-0.111-0.089-0.181-0.337-0.408-0.125
		c-0.251,0.235,0.048,0.304,0.13,0.38c0.222,0.207,0.217,0.35-0.001,0.558c-0.286,0.271-0.539,0.577-0.798,0.876
		c-0.06,0.068-0.164,0.143-0.065,0.266C11.969,31.271,12.015,31.366,12.029,31.39z M23.797,32.119
		c-0.383-0.021-0.801,0.203-1.258,0.229c-0.139,0.008-0.219,0.095-0.208,0.231c0.012,0.17,0.139,0.17,0.26,0.137
		c0.417-0.116,0.531,0.077,0.551,0.466c0.017,0.347,0.124,0.689,0.171,1.037c0.026,0.197,0.129,0.23,0.3,0.223
		c0.216-0.011,0.23-0.141,0.199-0.301c-0.068-0.345-0.099-0.705-0.224-1.027c-0.155-0.404-0.108-0.612,0.36-0.636
		c0.112-0.006,0.242-0.059,0.2-0.225C24.112,32.112,24.01,32.076,23.797,32.119z M32.56,28.214c0.05,0,0.083-0.037,0.114-0.094
		c0.188-0.345,0.375-0.691,0.573-1.03c0.073-0.125,0.08-0.21-0.058-0.284c-0.145-0.078-0.227,0.014-0.289,0.113
		c-0.085,0.134-0.161,0.276-0.225,0.423c-0.118,0.27-0.28,0.29-0.522,0.145c-0.322-0.193-0.662-0.359-0.991-0.544
		c-0.143-0.079-0.276-0.201-0.406,0.01c-0.131,0.214,0.06,0.314,0.182,0.372c0.343,0.162,0.669,0.354,0.993,0.55
		C32.13,27.994,32.342,28.097,32.56,28.214z M11.193,26.919c-0.097-0.195-0.2-0.384-0.458-0.234
		c-0.489,0.287-0.97,0.586-1.461,0.869c-0.173,0.1-0.172,0.216-0.08,0.36c0.086,0.134,0.174,0.146,0.323,0.055
		c0.505-0.312,1.024-0.599,1.535-0.902C11.109,27.033,11.192,27.006,11.193,26.919z M25.748,33.621
		c-0.209-0.544-0.434-1.157-0.685-1.76c-0.061-0.145-0.236-0.065-0.361-0.045c-0.066,0.012-0.075,0.067-0.052,0.135
		c0.209,0.613,0.416,1.228,0.623,1.841c0.054,0.158,0.175,0.134,0.29,0.104C25.665,33.871,25.763,33.829,25.748,33.621z
		 M31.405,26.321c0.025-0.236,0.015-0.463,0.268-0.609c0.251-0.146,0.437,0.055,0.706,0.121c-0.271-0.352-0.575-0.363-0.843-0.177
		C31.332,25.8,31.202,26.047,31.405,26.321z"/>
	<path fill-rule="evenodd" clip-rule="evenodd" fill="#FDFDFA" d="M35.044,20.678c-0.005,1.28-0.081,2.231-0.265,3.174
		c-0.107,0.557-0.261,0.674-0.799,0.53c-0.592-0.159-1.172-0.372-1.771-0.508c-0.394-0.089-0.441-0.322-0.42-0.646
		c0.032-0.514,0.167-1.013,0.198-1.53c0.153-2.485-0.39-4.778-1.824-6.833c-0.251-0.359-0.515-0.711-0.831-1.019
		c-0.29-0.282-0.325-0.572-0.021-0.875c0.474-0.473,0.937-0.958,1.415-1.426c0.285-0.278,0.544-0.128,0.758,0.108
		c0.671,0.737,1.258,1.532,1.749,2.402C34.451,16.211,35.063,18.522,35.044,20.678z"/>
	<path fill-rule="evenodd" clip-rule="evenodd" fill="#FDFDFA" d="M6.996,20.922c0.026-3.409,1.083-6.437,3.341-9.019
		c0.096-0.11,0.198-0.215,0.303-0.316c0.229-0.221,0.454-0.233,0.686,0.005c0.468,0.479,0.941,0.952,1.412,1.428
		c0.257,0.26,0.219,0.508-0.016,0.767c-1.214,1.336-2.063,2.878-2.457,4.64c-0.303,1.359-0.357,2.741-0.124,4.123
		c0.012,0.073,0.031,0.145,0.042,0.218c0.13,0.957,0.09,1.011-0.859,1.26c-0.439,0.117-0.874,0.249-1.312,0.367
		c-0.477,0.129-0.614,0.073-0.72-0.406c-0.18-0.819-0.312-1.647-0.296-2.491C7,21.306,6.996,21.113,6.996,20.922z"/>
	<path fill-rule="evenodd" clip-rule="evenodd" fill="#FAF8ED" d="M30.006,10.415c-0.003,0.15-0.109,0.248-0.191,0.341
		c-0.43,0.495-0.882,0.971-1.312,1.467c-0.241,0.279-0.48,0.291-0.758,0.075c-0.896-0.692-1.871-1.246-2.936-1.633
		c-1.863-0.678-3.775-0.837-5.727-0.508c-1.797,0.303-3.41,1.023-4.843,2.147c-0.29,0.229-0.519,0.179-0.752-0.085
		c-0.43-0.488-0.868-0.969-1.312-1.445c-0.277-0.298-0.215-0.519,0.09-0.76c1.169-0.921,2.438-1.633,3.839-2.165
		c1.693-0.643,3.422-0.94,5.216-0.896c3.101,0.078,5.864,1.113,8.319,2.994C29.802,10.071,29.967,10.198,30.006,10.415z
		 M25.237,10.317c0-0.105,0.014-0.194-0.002-0.278c-0.069-0.364-0.083-0.666,0.254-0.967c0.229-0.206,0.211-0.602-0.023-0.88
		c-0.177-0.211-1.099-0.426-1.252-0.31c-0.067,0.05-0.134,0.125-0.156,0.203c-0.143,0.475-0.278,0.951-0.403,1.43
		c-0.04,0.15-0.087,0.316,0.167,0.363c0.249,0.046,0.314-0.082,0.35-0.277c0.029-0.169,0.015-0.381,0.282-0.349
		c0.246,0.029,0.274,0.208,0.279,0.416C24.742,9.969,24.791,10.258,25.237,10.317z M16.278,10.49
		c-0.11-0.117-0.208-0.283-0.352-0.361c-0.257-0.138-0.356-0.258-0.249-0.579c0.088-0.267-0.154-0.479-0.367-0.646
		c-0.184-0.145-0.38-0.144-0.577-0.037C14.49,9,14.258,9.156,14.008,9.273c-0.2,0.094-0.213,0.189-0.108,0.371
		c0.261,0.454,0.495,0.924,0.76,1.375c0.076,0.129,0.155,0.358,0.398,0.202c0.221-0.142,0.157-0.312,0.052-0.49
		c-0.086-0.143-0.27-0.292-0.073-0.458c0.176-0.148,0.331-0.043,0.506,0.078C15.749,10.491,15.947,10.835,16.278,10.49z
		 M22.212,7.375c-0.198-0.037-0.283,0.083-0.359,0.245c-0.248,0.529-0.51,1.051-0.76,1.58c-0.045,0.092-0.179,0.211-0.019,0.299
		c0.115,0.063,0.306,0.076,0.357-0.055c0.136-0.335,0.38-0.289,0.65-0.265c0.289,0.026,0.498,0.104,0.575,0.427
		c0.023,0.098,0.179,0.208,0.329,0.125c0.113-0.063,0.081-0.158,0.052-0.267c-0.164-0.607-0.315-1.218-0.477-1.826
		C22.517,7.467,22.416,7.349,22.212,7.375z M18.555,8.94c0.012-0.618-0.442-1.086-1.07-1.104c-0.62-0.018-1.09,0.437-1.102,1.064
		c-0.012,0.651,0.441,1.136,1.064,1.14C18.089,10.044,18.542,9.593,18.555,8.94z M26.345,8.476c0,0.085-0.016,0.161,0.003,0.227
		c0.175,0.628,0.313,1.247-0.131,1.836c-0.075,0.099-0.139,0.282,0.076,0.352c0.182,0.059,0.318,0.01,0.375-0.188
		c0.157-0.544,0.573-0.811,1.064-0.997c0.183-0.068,0.359-0.143,0.496-0.306C27.83,9.207,27.83,9.207,27.51,9.35
		c-0.528,0.238-0.58,0.228-0.637-0.354C26.839,8.65,26.688,8.509,26.345,8.476z M19.971,7.369c-0.237,0-0.544,0.023-0.846,0.103
		c-0.133,0.035-0.314,0.016-0.28,0.249c0.035,0.238,0.209,0.179,0.337,0.144c0.345-0.093,0.396,0.083,0.411,0.369
		c0.019,0.366,0.082,0.731,0.122,1.096c0.019,0.167,0.074,0.287,0.273,0.261s0.216-0.166,0.201-0.326
		c-0.03-0.336-0.047-0.675-0.093-1.01c-0.045-0.332-0.045-0.595,0.414-0.527c0.128,0.019,0.23-0.038,0.223-0.2
		c-0.009-0.164-0.126-0.182-0.248-0.182C20.339,7.345,20.191,7.358,19.971,7.369z"/>
	<path fill-rule="evenodd" clip-rule="evenodd" fill="#FDFDFA" d="M22.412,29.735c0.126-1.66,0.25-3.319,0.38-4.978
		c0.026-0.35,0.325-0.486,0.702-0.31c1.112,0.525,2.219,1.061,3.326,1.596c0.553,0.267,1.107,0.533,1.652,0.815
		c0.405,0.209,0.421,0.404,0.1,0.739c-1.076,1.123-2.312,2.018-3.741,2.637c-0.632,0.274-1.301,0.44-1.961,0.628
		c-0.3,0.085-0.486-0.024-0.471-0.376c0.012-0.251,0.002-0.502,0.002-0.752C22.406,29.735,22.409,29.735,22.412,29.735z"/>
	<path fill-rule="evenodd" clip-rule="evenodd" fill="#FDFDFA" d="M19.584,12.186c-0.123,1.663-0.24,3.293-0.368,4.923
		c-0.034,0.431-0.311,0.599-0.7,0.416c-1.678-0.795-3.352-1.598-5.022-2.409c-0.359-0.174-0.391-0.395-0.117-0.685
		c1.451-1.532,3.165-2.642,5.222-3.17c1.008-0.258,1.014-0.238,0.985,0.825C19.583,12.129,19.584,12.173,19.584,12.186z"/>
	<path fill-rule="evenodd" clip-rule="evenodd" fill="#FDFDFA" d="M31.039,20.898c-0.031,1.227-0.22,2.311-0.517,3.378
		c-0.102,0.366-0.373,0.43-0.767,0.165c-0.875-0.586-1.738-1.189-2.611-1.779c-0.6-0.405-1.232-0.769-1.805-1.209
		c-0.46-0.353-0.397-0.674,0.087-1.002c1.392-0.941,2.788-1.875,4.161-2.842c0.656-0.461,0.831-0.332,1.009,0.359
		C30.856,18.972,30.986,19.986,31.039,20.898z"/>
	<path fill-rule="evenodd" clip-rule="evenodd" fill="#FDFDFA" d="M19.703,30.25c0.031,0.646-0.142,0.795-0.72,0.635
		c-1.856-0.514-3.549-1.335-4.94-2.703c-0.146-0.145-0.299-0.283-0.445-0.429c-0.47-0.464-0.442-0.629,0.14-0.908
		c0.58-0.276,1.156-0.555,1.733-0.837c0.971-0.476,1.936-0.964,2.912-1.427c0.487-0.232,0.872-0.183,0.915,0.464
		c0.076,1.13,0.195,2.257,0.267,3.386C19.605,29.063,19.629,29.694,19.703,30.25z"/>
	<path fill-rule="evenodd" clip-rule="evenodd" fill="#FDFDFA" d="M10.954,21.1c0.041-1.212,0.208-2.299,0.506-3.365
		c0.106-0.38,0.362-0.459,0.753-0.205c0.625,0.407,1.239,0.83,1.854,1.251c0.806,0.552,1.607,1.11,2.412,1.663
		c0.647,0.444,0.646,0.686,0.009,1.121c-1.337,0.916-2.669,1.84-4.003,2.759c-0.097,0.067-0.193,0.136-0.296,0.19
		c-0.381,0.204-0.597,0.145-0.739-0.275C11.094,23.188,11.032,22.09,10.954,21.1z"/>
	<path fill-rule="evenodd" clip-rule="evenodd" fill="#FDFDFA" d="M22.401,12.187c0-0.191,0.003-0.383,0-0.575
		c-0.009-0.529,0.109-0.645,0.62-0.505c1.447,0.399,2.827,0.947,4.029,1.885c0.507,0.396,0.987,0.817,1.439,1.275
		c0.439,0.445,0.414,0.608-0.154,0.883c-1.224,0.591-2.449,1.179-3.673,1.77c-0.344,0.166-0.679,0.347-1.026,0.504
		c-0.551,0.249-0.847,0.073-0.873-0.523c-0.033-0.795-0.19-1.58-0.176-2.379C22.603,13.739,22.385,12.972,22.401,12.187z"/>
	<path fill-rule="evenodd" clip-rule="evenodd" fill="#FAF8ED" d="M17.463,20.99c0.024-1.937,1.582-3.484,3.505-3.513
		c1.895-0.028,3.546,1.625,3.552,3.52c0.005,1.901-1.634,3.539-3.54,3.535C19.057,24.529,17.462,22.923,17.463,20.99z
		 M17.823,20.707c-0.089,2.055,1.411,3.606,3.384,3.461c1.342-0.1,2.298-0.825,2.759-2.105c0.693-1.927-0.547-3.93-2.696-4.226
		c-1.041-0.144-1.868,0.393-2.601,1.024C18.119,19.333,17.796,19.979,17.823,20.707z"/>
	<path fill-rule="evenodd" clip-rule="evenodd" fill="#F5A921" d="M18.634,33.275c-0.172,0.301-0.084,0.65-0.23,0.945
		c-0.063,0.128-0.095,0.24-0.275,0.201c-0.184-0.041-0.187-0.158-0.156-0.301c0.129-0.601,0.258-1.202,0.385-1.803
		c0.021-0.1,0.067-0.161,0.176-0.147c0.153,0.02,0.279,0.08,0.345,0.232c0.12,0.28,0.238,0.56,0.367,0.835
		c0.047,0.1,0.121,0.187,0.245,0.373c0.039-0.378,0.07-0.647,0.093-0.917c0.013-0.166,0.004-0.345,0.246-0.329
		c0.229,0.016,0.186,0.2,0.174,0.335c-0.053,0.554-0.125,1.107-0.178,1.663c-0.016,0.161-0.064,0.293-0.227,0.335
		c-0.183,0.046-0.271-0.109-0.335-0.229c-0.142-0.272-0.261-0.556-0.376-0.84C18.83,33.492,18.778,33.362,18.634,33.275z"/>
	<path fill-rule="evenodd" clip-rule="evenodd" fill="#F5A921" d="M10.863,28.309c-0.253,0.175-0.521,0.326-0.746,0.525
		c-0.188,0.168-0.286,0.049-0.39-0.063c-0.141-0.153,0.006-0.239,0.11-0.311c0.456-0.313,0.914-0.621,1.376-0.925
		c0.099-0.064,0.199-0.232,0.335-0.09c0.098,0.102,0.158,0.249,0.104,0.406c-0.092,0.262-0.184,0.522-0.282,0.782
		c-0.028,0.076-0.037,0.149,0.018,0.205c0.065,0.067,0.128-0.01,0.194-0.024c0.184-0.042,0.291-0.186,0.417-0.302
		c0.15-0.139,0.283-0.127,0.414,0.025c0.152,0.179-0.037,0.229-0.121,0.303c-0.418,0.36-0.845,0.712-1.266,1.068
		c-0.099,0.084-0.184,0.211-0.334,0.091c-0.122-0.098-0.202-0.213-0.149-0.38c0.096-0.306,0.182-0.615,0.289-0.916
		C10.875,28.58,10.952,28.469,10.863,28.309z"/>
	<path fill-rule="evenodd" clip-rule="evenodd" fill="#F5A921" d="M29.373,30.238c-0.031-0.353-0.275-0.495-0.444-0.686
		c-0.107-0.121-0.127-0.191-0.012-0.326c0.142-0.163,0.222-0.072,0.316,0.027c0.392,0.412,0.781,0.823,1.172,1.235
		c0.088,0.093,0.244,0.175,0.127,0.323c-0.105,0.135-0.241,0.271-0.447,0.177c-0.294-0.134-0.638-0.082-0.923-0.256
		c-0.074-0.044-0.187-0.054-0.25,0.016c-0.108,0.116,0.032,0.187,0.085,0.254c0.143,0.183,0.325,0.322,0.417,0.558
		c0.063,0.16-0.008,0.184-0.088,0.271c-0.133,0.146-0.21,0.044-0.277-0.043c-0.373-0.482-0.74-0.97-1.103-1.46
		c-0.049-0.064-0.109-0.167-0.033-0.239c0.093-0.087,0.199-0.163,0.353-0.122C28.615,30.061,28.971,30.142,29.373,30.238z"/>
	<path fill-rule="evenodd" clip-rule="evenodd" fill="#F5A921" d="M17.157,33.5c0.017,0.152,0.031,0.241,0.035,0.328
		c0.005,0.115,0.029,0.254-0.147,0.261c-0.161,0.006-0.295-0.045-0.302-0.239c-0.007-0.19-0.022-0.383-0.008-0.573
		c0.018-0.227-0.127-0.315-0.293-0.38c-0.232-0.09-0.212,0.134-0.271,0.247c-0.06,0.115-0.107,0.237-0.151,0.36
		c-0.062,0.172-0.165,0.166-0.311,0.104c-0.143-0.061-0.214-0.106-0.133-0.285c0.236-0.518,0.449-1.046,0.668-1.57
		c0.058-0.138,0.131-0.219,0.3-0.176c0.327,0.084,0.641,0.21,0.903,0.416c0.334,0.263,0.342,0.74-0.01,0.97
		C17.181,33.126,17.09,33.289,17.157,33.5z M17.278,32.406c-0.051-0.353-0.391-0.265-0.59-0.354
		c-0.143-0.063-0.214,0.251-0.199,0.316c0.057,0.233,0.294,0.285,0.503,0.306C17.164,32.692,17.249,32.565,17.278,32.406z"/>
	<path fill-rule="evenodd" clip-rule="evenodd" fill="#F5A921" d="M28.092,32.011c0.001,0.648-0.503,1.149-1.139,1.133
		c-0.584-0.015-1.059-0.53-1.047-1.137c0.01-0.623,0.463-1.087,1.069-1.095C27.601,30.904,28.091,31.387,28.092,32.011z
		 M26.979,32.696c0.428,0.007,0.739-0.285,0.736-0.689c-0.002-0.353-0.344-0.708-0.69-0.721c-0.378-0.012-0.727,0.335-0.725,0.719
		C26.305,32.427,26.563,32.689,26.979,32.696z"/>
	<path fill-rule="evenodd" clip-rule="evenodd" fill="#F5A921" d="M31.785,29.004c-0.306-0.022-0.784,0.564-0.669,0.866
		c0.071,0.188,0.079,0.325-0.107,0.39c-0.181,0.063-0.224-0.107-0.299-0.235c-0.274-0.462-0.557-0.921-0.853-1.369
		c-0.083-0.126-0.197-0.218-0.066-0.37c0.111-0.132,0.202-0.298,0.427-0.224c0.598,0.197,1.196,0.389,1.794,0.583
		c0.108,0.036,0.199,0.101,0.138,0.224C32.076,29.011,31.959,29.092,31.785,29.004z M30.409,28.637
		c0.123,0.241,0.205,0.482,0.423,0.655c0.095-0.165,0.348-0.302,0.257-0.44C30.972,28.673,30.722,28.58,30.409,28.637z"/>
	<path fill-rule="evenodd" clip-rule="evenodd" fill="#F5A921" d="M22.389,34.431c0.021,0.108-0.016,0.16-0.104,0.172
		c-0.116,0.016-0.223,0.021-0.323-0.077c-0.39-0.379-0.906-0.371-1.262,0.013c-0.065,0.07-0.138,0.117-0.23,0.08
		c-0.127-0.049-0.117-0.183-0.087-0.263c0.204-0.538,0.398-1.079,0.55-1.636c0.06-0.219,0.475-0.33,0.583-0.165
		C21.901,33.141,22.09,33.822,22.389,34.431z M21.319,33.328c-0.165,0.048-0.221,0.207-0.251,0.359
		c-0.036,0.18,0.117,0.177,0.231,0.172c0.12-0.004,0.293,0.034,0.257-0.191C21.531,33.523,21.533,33.363,21.319,33.328z"/>
	<path fill-rule="evenodd" clip-rule="evenodd" fill="#F5A921" d="M14.881,32.141c-0.128-0.071-0.263-0.113-0.354-0.202
		c-0.184-0.176-0.282-0.099-0.42,0.066c-0.205,0.244-0.188,0.385,0.121,0.504c0.173,0.064,0.328,0.183,0.485,0.284
		c0.073,0.048,0.148,0.116,0.07,0.215c-0.065,0.082-0.139,0.148-0.261,0.071c-0.343-0.221-0.693-0.43-1.034-0.651
		c-0.122-0.079-0.108-0.177-0.023-0.299c0.336-0.478,0.666-0.959,0.982-1.45c0.111-0.173,0.219-0.158,0.364-0.069
		c0.286,0.172,0.578,0.336,0.86,0.515c0.078,0.049,0.198,0.114,0.125,0.243c-0.063,0.112-0.165,0.166-0.298,0.104
		c-0.185-0.087-0.372-0.17-0.552-0.267c-0.125-0.065-0.227-0.139-0.323,0.042c-0.081,0.151-0.107,0.271,0.07,0.368
		c0.102,0.055,0.198,0.122,0.298,0.181c0.08,0.047,0.163,0.089,0.073,0.196C15.011,32.057,14.979,32.151,14.881,32.141z"/>
	<path fill-rule="evenodd" clip-rule="evenodd" fill="#F5A921" d="M12.029,31.39c-0.014-0.023-0.06-0.118-0.124-0.197
		c-0.099-0.123,0.005-0.197,0.065-0.266c0.259-0.299,0.513-0.604,0.798-0.876c0.219-0.208,0.224-0.351,0.001-0.558
		c-0.082-0.076-0.381-0.145-0.13-0.38c0.227-0.212,0.297,0.036,0.408,0.125c0.308,0.245,0.597,0.514,0.906,0.756
		c0.12,0.096,0.212,0.188,0.107,0.321c-0.098,0.126-0.235,0.107-0.346-0.006c-0.267-0.277-0.467-0.178-0.671,0.09
		c-0.22,0.29-0.467,0.56-0.702,0.839C12.286,31.304,12.24,31.385,12.029,31.39z"/>
	<path fill-rule="evenodd" clip-rule="evenodd" fill="#F5A921" d="M23.797,32.119c0.213-0.043,0.315-0.007,0.352,0.134
		c0.042,0.166-0.088,0.219-0.2,0.225c-0.469,0.023-0.516,0.231-0.36,0.636c0.125,0.322,0.155,0.683,0.224,1.027
		c0.031,0.16,0.017,0.29-0.199,0.301c-0.171,0.008-0.273-0.025-0.3-0.223c-0.047-0.348-0.154-0.69-0.171-1.037
		c-0.02-0.389-0.134-0.582-0.551-0.466c-0.121,0.033-0.248,0.033-0.26-0.137c-0.011-0.137,0.069-0.224,0.208-0.231
		C22.996,32.322,23.414,32.099,23.797,32.119z"/>
	<path fill-rule="evenodd" clip-rule="evenodd" fill="#F5A921" d="M32.56,28.214c-0.218-0.117-0.43-0.22-0.629-0.34
		c-0.324-0.196-0.65-0.388-0.993-0.55c-0.122-0.058-0.313-0.158-0.182-0.372c0.13-0.211,0.264-0.089,0.406-0.01
		c0.329,0.185,0.669,0.351,0.991,0.544c0.242,0.146,0.404,0.125,0.522-0.145c0.063-0.146,0.14-0.289,0.225-0.423
		c0.063-0.1,0.145-0.191,0.289-0.113c0.138,0.074,0.131,0.159,0.058,0.284c-0.198,0.339-0.385,0.686-0.573,1.03
		C32.643,28.177,32.609,28.214,32.56,28.214z"/>
	<path fill-rule="evenodd" clip-rule="evenodd" fill="#F5A921" d="M11.193,26.919c0,0.087-0.083,0.114-0.14,0.147
		c-0.511,0.304-1.03,0.591-1.535,0.902c-0.149,0.092-0.237,0.079-0.323-0.055c-0.092-0.145-0.093-0.261,0.08-0.36
		c0.491-0.283,0.972-0.582,1.461-0.869C10.993,26.535,11.096,26.724,11.193,26.919z"/>
	<path fill-rule="evenodd" clip-rule="evenodd" fill="#F5A921" d="M25.748,33.621c0.015,0.208-0.083,0.25-0.185,0.275
		c-0.115,0.029-0.236,0.054-0.29-0.104c-0.207-0.613-0.414-1.228-0.623-1.841c-0.023-0.067-0.015-0.123,0.052-0.135
		c0.125-0.021,0.301-0.1,0.361,0.045C25.314,32.464,25.539,33.077,25.748,33.621z"/>
	<path fill-rule="evenodd" clip-rule="evenodd" fill="#F5A921" d="M31.405,26.321c-0.203-0.274-0.073-0.521,0.131-0.665
		c0.268-0.187,0.571-0.175,0.843,0.177c-0.27-0.066-0.455-0.267-0.706-0.121C31.42,25.858,31.431,26.085,31.405,26.321z"/>
	<path fill-rule="evenodd" clip-rule="evenodd" fill="#F5A921" d="M25.237,10.317c-0.446-0.059-0.495-0.348-0.505-0.649
		c-0.005-0.208-0.033-0.387-0.279-0.416c-0.268-0.032-0.253,0.18-0.282,0.349c-0.035,0.195-0.101,0.323-0.35,0.277
		c-0.254-0.047-0.207-0.213-0.167-0.363c0.125-0.479,0.261-0.956,0.403-1.43c0.022-0.077,0.089-0.153,0.156-0.203
		c0.153-0.116,1.075,0.099,1.252,0.31c0.234,0.279,0.253,0.675,0.023,0.88c-0.337,0.302-0.323,0.604-0.254,0.967
		C25.251,10.123,25.237,10.211,25.237,10.317z M24.682,8.267c-0.221,0.035-0.283,0.242-0.273,0.384
		c0.017,0.214,0.251,0.253,0.429,0.288c0.207,0.041,0.302-0.118,0.307-0.284C25.151,8.358,24.88,8.353,24.682,8.267z"/>
	<path fill-rule="evenodd" clip-rule="evenodd" fill="#F5A921" d="M16.278,10.49c-0.332,0.346-0.529,0.001-0.735-0.14
		c-0.176-0.121-0.33-0.226-0.506-0.078c-0.197,0.166-0.013,0.315,0.073,0.458c0.105,0.178,0.169,0.349-0.052,0.49
		c-0.243,0.156-0.322-0.073-0.398-0.202c-0.266-0.451-0.499-0.92-0.76-1.375c-0.105-0.182-0.092-0.277,0.108-0.371
		C14.258,9.156,14.49,9,14.733,8.867c0.197-0.107,0.393-0.108,0.577,0.037c0.213,0.167,0.456,0.38,0.367,0.646
		c-0.107,0.321-0.008,0.441,0.249,0.579C16.071,10.207,16.168,10.373,16.278,10.49z M15.191,9.655
		c-0.017-0.228-0.022-0.395-0.237-0.37c-0.219,0.025-0.462,0.085-0.491,0.336c-0.016,0.133,0.134,0.371,0.269,0.331
		C14.904,9.902,15.205,9.899,15.191,9.655z"/>
	<path fill-rule="evenodd" clip-rule="evenodd" fill="#F5A921" d="M22.212,7.375c0.204-0.026,0.305,0.091,0.35,0.262
		c0.161,0.608,0.313,1.219,0.477,1.826c0.029,0.109,0.062,0.204-0.052,0.267c-0.15,0.083-0.306-0.027-0.329-0.125
		c-0.077-0.323-0.286-0.401-0.575-0.427c-0.271-0.024-0.515-0.071-0.65,0.265c-0.052,0.131-0.242,0.118-0.357,0.055
		c-0.16-0.088-0.026-0.207,0.019-0.299c0.25-0.528,0.512-1.051,0.76-1.58C21.929,7.458,22.014,7.338,22.212,7.375z M22.182,8.05
		c-0.179,0.096-0.177,0.279-0.257,0.406c-0.059,0.09-0.204,0.257-0.051,0.335c0.13,0.066,0.345,0.062,0.479-0.002
		c0.136-0.064,0.033-0.229-0.015-0.347C22.287,8.315,22.238,8.188,22.182,8.05z"/>
	<path fill-rule="evenodd" clip-rule="evenodd" fill="#F5A921" d="M18.555,8.94c-0.013,0.653-0.465,1.104-1.107,1.1
		c-0.624-0.004-1.077-0.489-1.064-1.14c0.011-0.627,0.481-1.082,1.102-1.064C18.112,7.854,18.566,8.322,18.555,8.94z M17.479,8.244
		c-0.397-0.002-0.707,0.285-0.716,0.663c-0.009,0.38,0.337,0.749,0.705,0.75c0.387,0,0.716-0.338,0.71-0.732
		C18.17,8.529,17.88,8.246,17.479,8.244z"/>
	<path fill-rule="evenodd" clip-rule="evenodd" fill="#F5A921" d="M26.345,8.476c0.344,0.034,0.494,0.174,0.528,0.52
		c0.057,0.583,0.108,0.592,0.637,0.354c0.32-0.143,0.32-0.143,0.719,0.049c-0.137,0.164-0.313,0.238-0.496,0.306
		c-0.491,0.186-0.907,0.453-1.064,0.997c-0.057,0.199-0.193,0.248-0.375,0.188c-0.215-0.07-0.151-0.253-0.076-0.352
		c0.443-0.589,0.306-1.208,0.131-1.836C26.329,8.637,26.345,8.561,26.345,8.476z"/>
	<path fill-rule="evenodd" clip-rule="evenodd" fill="#F5A921" d="M19.971,7.369c0.22-0.011,0.368-0.023,0.514-0.023
		c0.122,0,0.239,0.018,0.248,0.182c0.008,0.163-0.095,0.219-0.223,0.2c-0.459-0.068-0.459,0.195-0.414,0.527
		c0.046,0.335,0.063,0.673,0.093,1.01c0.015,0.16-0.002,0.299-0.201,0.326s-0.255-0.094-0.273-0.261
		c-0.04-0.365-0.104-0.73-0.122-1.096c-0.014-0.286-0.065-0.462-0.411-0.369c-0.127,0.035-0.302,0.094-0.337-0.144
		c-0.034-0.233,0.147-0.214,0.28-0.249C19.427,7.392,19.734,7.369,19.971,7.369z"/>
	<path fill-rule="evenodd" clip-rule="evenodd" fill="#F5A921" d="M17.823,20.707c-0.027-0.728,0.296-1.374,0.846-1.847
		c0.733-0.631,1.56-1.167,2.601-1.024c2.149,0.296,3.39,2.299,2.696,4.226c-0.461,1.28-1.417,2.006-2.759,2.105
		C19.234,24.313,17.733,22.762,17.823,20.707z M22.449,19.569c-0.009-0.028-0.011-0.063-0.029-0.082
		c-0.311-0.322-0.882-0.376-0.959-0.949c-0.011-0.078-0.183-0.05-0.283-0.024c-0.118-0.001-0.237-0.001-0.355-0.002
		c-0.548-0.125-0.321,0.304-0.38,0.529c-1.217,0.341-1.839,1.646-1.329,2.835c0.359,0.839,1.236,1.32,2.13,1.24
		c0.854-0.076,1.619-0.743,1.822-1.634C23.235,20.735,23.077,20.071,22.449,19.569z"/>
	<path fill-rule="evenodd" clip-rule="evenodd" fill="#FAF8ED" d="M17.278,32.406c-0.029,0.159-0.115,0.286-0.286,0.268
		c-0.209-0.021-0.446-0.072-0.503-0.306c-0.016-0.065,0.056-0.38,0.199-0.316C16.888,32.142,17.227,32.054,17.278,32.406z"/>
	<path fill-rule="evenodd" clip-rule="evenodd" fill="#FAF8ED" d="M26.979,32.696c-0.417-0.007-0.675-0.27-0.679-0.691
		c-0.002-0.384,0.347-0.73,0.725-0.719c0.347,0.013,0.688,0.368,0.69,0.721C27.719,32.411,27.407,32.703,26.979,32.696z"/>
	<path fill-rule="evenodd" clip-rule="evenodd" fill="#FAF8ED" d="M30.409,28.637c0.313-0.057,0.563,0.036,0.68,0.215
		c0.091,0.139-0.162,0.275-0.257,0.44C30.614,29.119,30.532,28.878,30.409,28.637z"/>
	<path fill-rule="evenodd" clip-rule="evenodd" fill="#FAF8ED" d="M21.319,33.328c0.214,0.035,0.212,0.195,0.237,0.34
		c0.036,0.226-0.137,0.188-0.257,0.191c-0.114,0.005-0.268,0.008-0.231-0.172C21.099,33.535,21.154,33.376,21.319,33.328z"/>
	<path fill-rule="evenodd" clip-rule="evenodd" fill="#FAF8ED" d="M24.682,8.267c0.198,0.086,0.47,0.091,0.462,0.388
		c-0.005,0.167-0.1,0.325-0.307,0.284c-0.178-0.035-0.412-0.074-0.429-0.288C24.398,8.509,24.461,8.302,24.682,8.267z"/>
	<path fill-rule="evenodd" clip-rule="evenodd" fill="#FAF8ED" d="M15.191,9.655c0.014,0.244-0.287,0.247-0.458,0.297
		c-0.135,0.04-0.285-0.198-0.269-0.331c0.029-0.251,0.271-0.311,0.491-0.336C15.168,9.261,15.174,9.428,15.191,9.655z"/>
	<path fill-rule="evenodd" clip-rule="evenodd" fill="#FAF8ED" d="M22.182,8.05c0.057,0.138,0.105,0.265,0.157,0.392
		c0.048,0.118,0.15,0.283,0.015,0.347c-0.135,0.064-0.35,0.068-0.479,0.002c-0.153-0.078-0.008-0.245,0.051-0.335
		C22.005,8.33,22.003,8.146,22.182,8.05z"/>
	<path fill-rule="evenodd" clip-rule="evenodd" fill="#FAF8ED" d="M17.479,8.244c0.402,0.002,0.691,0.285,0.698,0.681
		c0.006,0.394-0.323,0.733-0.71,0.732c-0.367-0.001-0.713-0.37-0.705-0.75C16.771,8.529,17.082,8.242,17.479,8.244z"/>
	<path fill-rule="evenodd" clip-rule="evenodd" fill="#FDFDFA" d="M20.822,18.511c0.118,0.001,0.237,0.001,0.355,0.002
		c-0.025,0.345,0.22,0.514,0.455,0.683c0.08,0.058,0.212,0.07,0.224,0.185c0.051,0.539,0.338,0.308,0.593,0.188
		c0.628,0.502,0.786,1.166,0.616,1.913c-0.203,0.891-0.969,1.558-1.822,1.634c-0.894,0.08-1.771-0.401-2.13-1.24
		c-0.51-1.189,0.112-2.494,1.329-2.835C20.73,18.979,20.829,18.783,20.822,18.511z M21.091,19.106
		c-0.032-0.009-0.072-0.031-0.111-0.03c-0.046,0.001-0.092,0.036-0.066,0.084c0.014,0.028,0.071,0.045,0.109,0.045
		C21.067,19.206,21.103,19.176,21.091,19.106z"/>
	<path fill-rule="evenodd" clip-rule="evenodd" fill="#FAF8ED" d="M22.449,19.569c-0.255,0.119-0.542,0.351-0.593-0.188
		c-0.012-0.114-0.144-0.127-0.224-0.185c-0.235-0.169-0.48-0.337-0.455-0.683c0.101-0.026,0.272-0.053,0.283,0.024
		c0.077,0.573,0.648,0.627,0.959,0.949C22.438,19.506,22.44,19.542,22.449,19.569z"/>
	<path fill-rule="evenodd" clip-rule="evenodd" fill="#FAF8ED" d="M20.822,18.511c0.007,0.272-0.092,0.468-0.38,0.529
		C20.501,18.815,20.274,18.386,20.822,18.511z"/>
	<path fill-rule="evenodd" clip-rule="evenodd" fill="#FAF8ED" d="M21.091,19.106c0.012,0.07-0.023,0.1-0.068,0.099
		c-0.038,0-0.096-0.018-0.109-0.045c-0.025-0.048,0.021-0.083,0.066-0.084C21.019,19.075,21.059,19.097,21.091,19.106z"/>
</g>
</svg>
