<?xml version="1.0" encoding="iso-8859-1"?>
<!-- Generator: Adobe Illustrator 19.0.0, SVG Export Plug-In . SVG Version: 6.00 Build 0)  -->
<svg version="1.1" id="Layer_1" xmlns="http://www.w3.org/2000/svg" xmlns:xlink="http://www.w3.org/1999/xlink" x="0px" y="0px"
	 viewBox="0 0 512.06 512.06" style="enable-background:new 0 0 512.06 512.06;" xml:space="preserve">
<g transform="translate(1 1)">
	<g>
		<g>
			<circle cx="255.001" cy="190.963" r="8.533"/>
			<circle cx="255.001" cy="250.696" r="8.533"/>
			<circle cx="255.001" cy="310.429" r="8.533"/>
			<circle cx="255.001" cy="370.163" r="8.533"/>
			<path d="M348.868,225.099h-51.2c-4.713,0-8.533,3.821-8.533,8.533v68.267c0,4.713,3.82,8.533,8.533,8.533h51.2
				c4.713,0,8.533-3.82,8.533-8.533v-68.267C357.401,228.919,353.581,225.099,348.868,225.099z M340.335,293.365h-34.133v-51.2
				h34.133V293.365z"/>
			<path d="M510.233,307.148c0.036-0.126,0.085-0.249,0.118-0.375c0.046-0.175,0.072-0.355,0.113-0.532
				c1.222-5.16,0.553-10.778-2.349-15.715l-5.518-9.381l-9.591-16.309c-0.007-0.012-0.016-0.022-0.023-0.034L393.638,95.899
				c-2.847-4.875-6.509-9.219-10.834-12.852c-8.886-7.462-20.105-11.548-31.703-11.548h-2.181c-0.013,0-0.025-0.003-0.038-0.003
				h-27.488c-7.23-15.857-34.534-25.6-66.379-25.6s-59.149,9.743-66.379,25.6h-27.488c-0.013,0-0.025,0.003-0.038,0.003h-2.188
				c-11.595,0-22.823,4.09-31.697,11.55c-4.326,3.634-7.991,7.983-10.839,12.864L1.734,292.245c-1.55,2.655-2.396,5.52-2.639,8.392
				c-0.471,5.549,1.377,11.124,5.202,15.273c1.339,1.453,2.918,2.732,4.72,3.772l24.456,14.122
				c9.53,5.501,21.708,2.289,27.283-7.196l13.226-22.519l3.472-5.91c0.003-0.006,0.006-0.012,0.009-0.018l41.017-69.839
				l-0.015,184.509c0,3.316,1.92,6.331,4.924,7.733l58.82,27.452c46.141,21.531,99.446,21.531,145.577,0l58.82-27.452
				c3.004-1.402,4.924-4.417,4.924-7.732l0.015-184.814l51.811,87.254l6.462,10.885c0.351,0.591,0.727,1.157,1.127,1.698
				c4.242,5.748,11.129,8.636,17.954,8.001c2.788-0.258,5.565-1.086,8.146-2.575l20.436-11.801l2.909-1.68
				c0.641-0.37,1.256-0.768,1.844-1.193C506.236,315.724,508.961,311.64,510.233,307.148z M491.864,305.018l-2.935,1.695
				l-20.409,11.783c-0.472,0.273-0.987,0.39-1.494,0.388c-0.814-0.005-1.611-0.335-2.174-0.955c-0.13-0.143-0.247-0.302-0.35-0.475
				l-6.38-10.744l-4.275-7.202l28.928-18.403l4.998,8.497l5.627,9.57c0.647,1.101,0.729,2.364,0.361,3.485
				C493.446,303.616,492.807,304.473,491.864,305.018z M191.41,88.565l28.503,32.575l-15.03,20.041l-29.231-52.616H191.41z
				 M318.621,88.565h15.756l-29.231,52.616l-15.029-20.04L318.621,88.565z M216.139,69.77c10-4.285,23.915-6.808,38.877-6.808
				s28.877,2.522,38.877,6.808c6.19,2.653,9.981,5.561,11.523,7.967l-32.698,37.368c-0.004,0.005-0.008,0.01-0.012,0.015
				l-17.69,20.217l-17.69-20.217c-0.004-0.005-0.008-0.01-0.012-0.015l-32.698-37.368C206.158,75.332,209.949,72.423,216.139,69.77z
				 M46.039,317.959c-0.821,1.401-2.621,1.875-4.022,1.065l-24.47-14.125c-0.177-0.102-0.34-0.22-0.487-0.351
				c-0.624-0.556-0.963-1.345-0.979-2.154c-0.009-0.524,0.11-1.056,0.394-1.543l11.474-19.652l30.271,16.026L46.039,317.959z
				 M390.353,192.582c-4.429-7.459-15.87-4.319-15.871,4.356l-0.017,210.459l-53.896,25.154c-41.557,19.395-89.577,19.395-131.142,0
				l-53.895-25.153l0.017-210.459c0.001-8.697-11.487-11.822-15.891-4.322l-52.786,89.877l-30.31-16.047l94.563-161.931
				c1.861-3.189,4.253-6.027,7.08-8.402c5.101-4.288,11.392-6.871,17.989-7.431l40.161,72.291
				c3.003,5.405,10.577,5.922,14.286,0.976l20.759-27.681l17.193,19.649c3.4,3.885,9.444,3.885,12.844,0l17.192-19.648l20.758,27.68
				c3.709,4.946,11.284,4.429,14.286-0.976l40.161-72.29c6.598,0.561,12.884,3.142,17.992,7.432
				c2.826,2.374,5.218,5.212,7.077,8.398l95.211,161.872l-28.988,18.441L390.353,192.582z"/>
		</g>
	</g>
</g>
<g>
</g>
<g>
</g>
<g>
</g>
<g>
</g>
<g>
</g>
<g>
</g>
<g>
</g>
<g>
</g>
<g>
</g>
<g>
</g>
<g>
</g>
<g>
</g>
<g>
</g>
<g>
</g>
<g>
</g>
</svg>
