<?xml version="1.0" encoding="utf-8"?>
<!-- Generator: Adobe Illustrator 23.0.0, SVG Export Plug-In . SVG Version: 6.00 Build 0)  -->
<svg version="1.1" id="line" xmlns="http://www.w3.org/2000/svg" xmlns:xlink="http://www.w3.org/1999/xlink" x="0px" y="0px"
	 viewBox="0 0 512 512" style="enable-background:new 0 0 512 512;" xml:space="preserve">
<style type="text/css">
	.st0{fill:#2F6BE1;}
	.st1{fill:#F3A70B;}
	.st2{fill:#2471E0;}
	.st3{fill:#F7A50E;}
</style>
<path class="st0" d="M436,344c13.3,0,24-10.7,24-24V96c0-13.3-10.7-24-24-24H84c-13.3,0-24,10.7-24,24v224c0,13.3,10.7,24,24,24h48
	v24H92c-4.4,0-8,3.6-8,8s3.6,8,8,8h40v32H68c-4.4,0-8,3.6-8,8s3.6,8,8,8h384c4.4,0,8-3.6,8-8s-3.6-8-8-8h-64v-32h40c4.4,0,8-3.6,8-8
	s-3.6-8-8-8h-40v-24H436z M76,320V96c0-4.4,3.6-8,8-8h352c4.4,0,8,3.6,8,8v224c0,4.4-3.6,8-8,8H84C79.6,328,76,324.4,76,320z
	 M196,384h128v32H196V384z M324,368H196v-24h128V368z M148,416v-72h32v72H148z M372,416h-32v-72h32V416z"/>
<path class="st1" d="M420,296V120c0-4.4-3.6-8-8-8H108c-4.4,0-8,3.6-8,8v176c0,4.4,3.6,8,8,8h304C416.4,304,420,300.4,420,296z
	 M404,288H116V128h288V288z"/>
<path class="st2" d="M196,264c30.9,0,56-25.1,56-56s-25.1-56-56-56s-56,25.1-56,56S165.1,264,196,264z M196,168
	c22.1,0,40,17.9,40,40s-17.9,40-40,40s-40-17.9-40-40S173.9,168,196,168z"/>
<path class="st3" d="M284,176h88c4.4,0,8-3.6,8-8s-3.6-8-8-8h-88c-4.4,0-8,3.6-8,8S279.6,176,284,176z"/>
<path class="st3" d="M284,216h88c4.4,0,8-3.6,8-8s-3.6-8-8-8h-88c-4.4,0-8,3.6-8,8S279.6,216,284,216z"/>
<path class="st3" d="M284,256h88c4.4,0,8-3.6,8-8s-3.6-8-8-8h-88c-4.4,0-8,3.6-8,8S279.6,256,284,256z"/>
</svg>
