<?xml version="1.0" encoding="utf-8"?>
<!-- Generator: Adobe Illustrator 16.0.0, SVG Export Plug-In . SVG Version: 6.00 Build 0)  -->
<!DOCTYPE svg PUBLIC "-//W3C//DTD SVG 1.1//EN" "http://www.w3.org/Graphics/SVG/1.1/DTD/svg11.dtd">
<svg version="1.1" id="Layer_1" xmlns="http://www.w3.org/2000/svg" xmlns:xlink="http://www.w3.org/1999/xlink" x="0px" y="0px"
	 width="50px" height="50px" viewBox="209.5 209.5 50 50" enable-background="new 209.5 209.5 50 50" xml:space="preserve">
<g>
	<path fill="#2471E2" d="M229.868,258.501c1.333,1.332,3.492,1.332,4.824,0l1.206-1.205l-8.442-8.442l-3.617,3.618L229.868,258.501z
		"/>
	<path fill="#FFCD00" d="M223.838,252.472l3.617-3.618L223.838,252.472z"/>
	<path fill="#F5A706" d="M253.28,214.234c-3.034-3.045-7.159-4.749-11.457-4.734c-0.472,0-0.854,0.382-0.854,0.853
		c0,0.471,0.382,0.853,0.854,0.853c3.843-0.005,7.53,1.519,10.248,4.237s4.242,6.405,4.237,10.249c0,0.471,0.382,0.853,0.853,0.853
		s0.853-0.382,0.853-0.853C258.028,221.393,256.324,217.268,253.28,214.234z"/>
	<path fill="#F5A706" d="M248.457,219.058c1.764,1.757,2.754,4.145,2.752,6.635c0,0.471,0.382,0.853,0.853,0.853
		s0.853-0.382,0.853-0.853c-0.01-6.118-4.967-11.076-11.085-11.085c-0.471,0-0.853,0.382-0.853,0.853
		c0,0.471,0.382,0.853,0.853,0.853C244.315,216.31,246.7,217.298,248.457,219.058z"/>
	<path fill="#368ADD" d="M226.25,216.292l3.618-3.618l12.06,12.06l-3.618,3.618L226.25,216.292z"/>
	<path fill="#2471E2" d="M238.309,228.352l3.618-3.618l12.06,12.06l-3.618,3.617L238.309,228.352z"/>
	<path fill="#F9B13D" d="M238.309,228.353l-12.059-12.06l-8.441,22.914l4.824,4.823L238.309,228.353z"/>
	<path fill="#E89605" d="M222.632,244.029l4.823,4.824l22.914-8.441l-12.061-12.06L222.632,244.029z"/>
	<path fill="#368ADD" d="M217.809,239.206l-4.824,4.823c-2.664,2.664-2.664,6.984,0,9.648l9.648-9.648L217.809,239.206z"/>
	<path fill="#2471E2" d="M212.984,253.678c2.664,2.664,6.984,2.664,9.648,0l1.206-1.206l3.617-3.618l-4.823-4.824L212.984,253.678z"
		/>
</g>
</svg>
