<?xml version="1.0" encoding="utf-8"?>
<!-- Generator: Adobe Illustrator 19.0.0, SVG Export Plug-In . SVG Version: 6.00 Build 0)  -->
<svg version="1.1" id="Layer_3" xmlns="http://www.w3.org/2000/svg" xmlns:xlink="http://www.w3.org/1999/xlink" x="0px" y="0px"
	 viewBox="-334 985 512 512" style="enable-background:new -334 985 512 512;" xml:space="preserve">
<style type="text/css">
	.st0{fill:#2770E1;}
	.st1{fill:#FBA709;}
</style>
<g>
	<circle class="st0" cx="-78" cy="1233" r="76.7"/>
	<path class="st0" d="M154,1049v16h-53.1l-85.8-70.2c-1.4-1.2-3.2-1.8-5.1-1.8h-240c-17.6,0-32,14.4-32,32c0,17.6,14.4,32,32,32h0.8
		c3.7,18.2,19.9,32,39.2,32h40v56c0,9.6,4.4,18.4,11.4,24.3c-16.8,16-27.4,38.6-27.4,63.7c0,48.5,39.5,88,88,88s88-39.5,88-88
		c0-21.3-7.6-40.8-20.2-56H154v16h16v-144H154z M-145.3,1073H-190c-10.4,0-19.2-6.7-22.5-16h83.2L-145.3,1073z M-150,1233
		c0-37,28.1-67.5,64-71.5v16.7c-13.8,3.6-24,16-24,30.9c0,17.6,14.4,32,32,32c8.8,0,16,7.2,16,16s-7.2,16-16,16s-16-7.2-16-16h-16
		c0,14.9,10.2,27.3,24,30.9v16.7C-121.9,1300.5-150,1270-150,1233L-150,1233z M-70,1145.4c-2.6-0.2-5.3-0.4-8-0.4s-5.4,0.2-8,0.4
		c0-0.1,0-0.3,0-0.4v-45.1l35.7-42.9h32.9L2,1076.3v36.7h-40c-17.6,0-32,14.4-32,32C-70,1145.1-70,1145.3-70,1145.4L-70,1145.4z
		 M-70,1304.5v-16.7c13.8-3.6,24-16,24-30.9c0-17.6-14.4-32-32-32c-8.8,0-16-7.2-16-16s7.2-16,16-16s16,7.2,16,16h16
		c0-14.9-10.2-27.3-24-30.9v-16.7c35.9,4,64,34.5,64,71.5S-34.1,1300.5-70,1304.5L-70,1304.5z M-27.6,1161
		c-7.8-5.5-16.6-9.8-26-12.5c-0.3-1.1-0.4-2.3-0.4-3.5c0-8.8,7.2-16,16-16h48c4.4,0,8-3.6,8-8v-48c0-2.1-0.8-4.2-2.3-5.7l-24-24
		c-1.5-1.5-3.5-2.3-5.7-2.3h-40c-2.4,0-4.6,1.1-6.1,2.9l-40,48c-1.2,1.4-1.9,3.3-1.9,5.1v48c0,1.2-0.2,2.4-0.4,3.5
		c-8.2,2.4-15.9,5.9-23,10.4c-5.1-2.7-8.6-8-8.6-14v-60.7l29.7-29.7c2.3-2.3,3-5.7,1.7-8.7c-1.2-3-4.2-4.9-7.4-4.9h-120
		c-8.8,0-16-7.2-16-16c0-8.8,7.2-16,16-16H7.1l85.8,70.2c1.4,1.2,3.2,1.8,5.1,1.8h56v80H-27.6z"/>
	<path class="st0" d="M82,1377h-184.8c-0.9-3.5-2.5-6.9-4.9-9.7l-44.2-51.5c-1.5-1.8-3.7-2.8-6.1-2.8h-88v-8c0-4.4-3.6-8-8-8h-64
		c-4.4,0-8,3.6-8,8v160c0,4.4,3.6,8,8,8h64c4.4,0,8-3.6,8-8v-8h53.6l46,30.7c1.3,0.9,2.9,1.3,4.4,1.3c0.6,0,1.1-0.1,1.7-0.2l256-56
		c3.7-0.8,6.3-4.1,6.3-7.8v-8C122,1394.9,104.1,1377,82,1377z M-262,1457h-48v-144h48V1457z M106,1418.6l-246.4,53.9l-45.2-30.1
		c-1.3-0.9-2.9-1.3-4.4-1.3h-56v-112h84.3l41.8,48.7c1.2,1.5,1.9,3.3,1.9,5.2v10.1c0,4.4-3.6,8-8,8h-9.4c-2.1,0-4.2-0.8-5.7-2.3
		l-35.3-35.3l-11.3,11.3l35.3,35.3c4.5,4.5,10.6,7,17,7h9.4c13.2,0,24-10.8,24-24H82c13.2,0,24,10.8,24,24V1418.6z"/>
	<path class="st1" d="M124.5,1321.4c-12.7-4.2-22.7-14.3-26.9-26.9c-1.1-3.3-4.1-5.5-7.6-5.5s-6.5,2.2-7.6,5.5
		c-4.2,12.6-14.3,22.7-26.9,26.9c-3.3,1.1-5.5,4.1-5.5,7.6s2.2,6.5,5.5,7.6c12.7,4.2,22.7,14.3,26.9,26.9c1.1,3.3,4.1,5.5,7.6,5.5
		s6.5-2.2,7.6-5.5c4.2-12.6,14.3-22.7,26.9-26.9c3.3-1.1,5.5-4.1,5.5-7.6S127.8,1322.5,124.5,1321.4z M90,1343.4
		c-3.9-5.6-8.8-10.5-14.4-14.4c5.6-3.9,10.5-8.8,14.4-14.4c3.9,5.6,8.8,10.5,14.4,14.4C98.8,1332.9,93.9,1337.8,90,1343.4z"/>
	<path class="st1" d="M-280.5,1160.6c12.7,4.2,22.7,14.3,26.9,26.9c1.1,3.3,4.1,5.5,7.6,5.5s6.5-2.2,7.6-5.5
		c4.2-12.6,14.3-22.7,26.9-26.9c3.3-1.1,5.5-4.1,5.5-7.6s-2.2-6.5-5.5-7.6c-12.7-4.2-22.7-14.3-26.9-26.9c-1.1-3.3-4.1-5.5-7.6-5.5
		s-6.5,2.2-7.6,5.5c-4.2,12.6-14.3,22.7-26.9,26.9c-3.3,1.1-5.5,4.1-5.5,7.6S-283.8,1159.5-280.5,1160.6z M-246,1138.6
		c3.9,5.6,8.8,10.5,14.4,14.4c-5.6,3.9-10.5,8.8-14.4,14.4c-3.9-5.6-8.8-10.5-14.4-14.4C-254.8,1149.1-249.9,1144.2-246,1138.6z"/>
	<g>
		<path class="st1" d="M-46.3,1205.2c-0.4-0.4-1-0.6-1.7-0.6h-12.3c-0.8-4-2.4-7.5-4.6-10.4h16.8c0.7,0,1.2-0.2,1.7-0.6
			c0.4-0.4,0.6-1,0.6-1.7v-7.4c0-0.7-0.2-1.2-0.6-1.7c-0.4-0.4-1-0.6-1.7-0.6h-60c-0.7,0-1.2,0.2-1.7,0.6c-0.4,0.4-0.6,1-0.6,1.7
			v9.6c0,0.6,0.2,1.2,0.7,1.6s1,0.7,1.6,0.7h10.5c10.1,0,16.6,2.7,19.3,8.1h-29.8c-0.7,0-1.2,0.2-1.7,0.6c-0.4,0.4-0.6,1-0.6,1.7
			v7.4c0,0.7,0.2,1.2,0.6,1.7c0.4,0.4,1,0.6,1.7,0.6h30.8c-1.1,3.9-3.5,6.9-7.4,9s-9,3.1-15.3,3.1h-8.1c-0.6,0-1.2,0.2-1.6,0.7
			c-0.5,0.5-0.7,1-0.7,1.6v9.2c0,0.6,0.2,1.2,0.6,1.6c9.2,9.8,21.2,23.5,35.9,41.2c0.4,0.6,1,0.9,1.8,0.9H-58c1,0,1.7-0.4,2.1-1.3
			c0.5-0.9,0.4-1.7-0.3-2.5c-14-17.2-25.1-30.1-33.1-38.7c8.2-1,14.8-3.6,19.9-7.9s8.2-10,9.3-16.9H-48c0.7,0,1.2-0.2,1.7-0.6
			c0.4-0.4,0.6-1,0.6-1.7v-7.4C-45.6,1206.2-45.8,1205.7-46.3,1205.2z"/>
	</g>
</g>
</svg>
