<?xml version="1.0" encoding="utf-8"?>
<!-- Generator: Adobe Illustrator 16.0.0, SVG Export Plug-In . SVG Version: 6.00 Build 0)  -->
<!DOCTYPE svg PUBLIC "-//W3C//DTD SVG 1.1//EN" "http://www.w3.org/Graphics/SVG/1.1/DTD/svg11.dtd">
<svg version="1.1" id="Layer_1" xmlns="http://www.w3.org/2000/svg" xmlns:xlink="http://www.w3.org/1999/xlink" x="0px" y="0px"
	 width="40px" height="40.635px" viewBox="0 0 40 40.635" enable-background="new 0 0 40 40.635" xml:space="preserve">
<g>
	<g>
		<path fill="#F5A706" d="M15.336,26.161l-0.624,3.703c-0.084,0.507,0.123,1.017,0.537,1.319c0.416,0.301,0.966,0.342,1.42,0.104
			l3.329-1.738l3.329,1.738c0.197,0.103,0.412,0.154,0.627,0.154c0.279,0,0.559-0.088,0.794-0.258
			c0.415-0.303,0.623-0.813,0.537-1.319l-0.622-3.702l2.68-2.63c0.367-0.358,0.498-0.896,0.341-1.383
			c-0.158-0.487-0.581-0.845-1.088-0.919l-3.715-0.551l-1.673-3.363c-0.227-0.459-0.697-0.75-1.21-0.75
			c-0.512,0-0.981,0.291-1.211,0.75l-1.671,3.363l-3.715,0.551c-0.508,0.074-0.929,0.432-1.087,0.918
			c-0.158,0.488-0.028,1.025,0.339,1.383L15.336,26.161z"/>
		<path fill="#2471E2" d="M35.965,4.32h-4.254V1.96c0-1.083-0.877-1.96-1.961-1.96h-0.311c-1.083,0-1.961,0.877-1.961,1.96V4.32
			H12.471V1.96c0-1.083-0.878-1.96-1.96-1.96H10.2c-1.083,0-1.96,0.877-1.96,1.96V4.32H4.035C1.811,4.32,0,6.13,0,8.355v28.246
			c0,2.224,1.811,4.034,4.035,4.034h31.93c2.225,0,4.035-1.811,4.035-4.034V8.355C40,6.13,38.188,4.32,35.965,4.32z M35.438,36.074
			H4.561V14.086h30.877V36.074z"/>
	</g>
</g>
</svg>
