<?xml version="1.0" encoding="utf-8"?>
<!-- Generator: Adobe Illustrator 16.0.0, SVG Export Plug-In . SVG Version: 6.00 Build 0)  -->
<!DOCTYPE svg PUBLIC "-//W3C//DTD SVG 1.1//EN" "http://www.w3.org/Graphics/SVG/1.1/DTD/svg11.dtd">
<svg version="1.1" id="Layer_1" xmlns="http://www.w3.org/2000/svg" xmlns:xlink="http://www.w3.org/1999/xlink" x="0px" y="0px"
	 width="50px" height="50px" viewBox="214.5 214.5 50 50" enable-background="new 214.5 214.5 50 50" xml:space="preserve">
<g>
	<path fill="#F7CAA5" d="M248.902,255.71l7.17-3.387c1.582-0.799,3.51-0.213,4.381,1.328l-14.573,9.428
		c-1.954,0.901-4.146,1.149-6.253,0.708l-10.052-2.821c-0.925-0.26-1.914-0.151-2.762,0.303l-2.102,1.124l0.283-10.251l0.084,0.002
		c3.003-2.135,6.947-2.41,10.219-0.715l0.603,0.312c0.94,0.487,1.979,0.755,3.038,0.784l5.909,0.163
		C246.701,252.738,248.324,253.947,248.902,255.71z"/>
	<path fill="#2471E2" d="M252.012,238.133c0,6.724-5.45,12.174-12.174,12.174c-6.723,0-12.173-5.45-12.173-12.174
		c0-6.723,5.45-12.174,12.173-12.174C246.562,225.959,252.012,231.41,252.012,238.133z"/>
	<path fill="#EDB288" d="M249.119,258.019h-0.021l-9.713-0.269c-0.451-0.012-0.807-0.388-0.794-0.839
		c0.012-0.451,0.388-0.807,0.839-0.794l8.802,0.242c-0.026-0.133-0.062-0.265-0.104-0.394c-0.473-1.434-1.793-2.418-3.302-2.461
		l-5.909-0.164c-1.182-0.033-2.342-0.333-3.392-0.876l-0.602-0.311c-2.998-1.563-6.62-1.31-9.371,0.655
		c-0.368,0.262-0.878,0.175-1.14-0.193c-0.261-0.367-0.175-0.878,0.193-1.14c3.25-2.32,7.527-2.619,11.068-0.773l0.602,0.312
		c0.832,0.43,1.75,0.666,2.686,0.693l5.909,0.163c1.382,0.037,2.692,0.622,3.643,1.626s1.463,2.345,1.424,3.727
		C249.924,257.666,249.562,258.019,249.119,258.019L249.119,258.019z"/>
	<g>
		<path fill="#F5A706" d="M239.838,224.396c-0.451,0-0.816-0.366-0.816-0.817v-7.762c0-0.451,0.365-0.817,0.816-0.817
			s0.817,0.366,0.817,0.817v7.762C240.655,224.031,240.289,224.396,239.838,224.396z"/>
		<path fill="#F5A706" d="M245.967,224.396c-0.451,0-0.817-0.366-0.817-0.817v-3.677c0-0.451,0.366-0.817,0.817-0.817
			s0.816,0.366,0.816,0.817v3.677C246.783,224.031,246.418,224.396,245.967,224.396z"/>
		<path fill="#F5A706" d="M233.71,224.396c-0.451,0-0.817-0.366-0.817-0.817v-3.677c0-0.451,0.366-0.817,0.817-0.817
			s0.817,0.366,0.817,0.817v3.677C234.527,224.031,234.161,224.396,233.71,224.396z"/>
	</g>
	<path fill="#2471E2" d="M225.052,262.376l-0.025,1.154l-6.479-0.143l0.007-14.221l6.48,0.143l-0.063,2.813L225.052,262.376z"/>
	<g>
		<path fill="#F5A706" d="M235.316,230.667h10.059v0.021c-0.593,0.914-0.928,1.401-1.005,1.464h-2.687
			c0.37,0.432,0.621,0.958,0.752,1.579h2.866c0.034,0.007,0.052,0.021,0.052,0.042c-0.642,0.962-0.969,1.443-0.983,1.443h-1.861
			c-0.042,0.495-0.277,1.091-0.71,1.788c-0.572,0.704-1.119,1.161-1.642,1.37c-0.976,0.467-1.91,0.7-2.802,0.7v0.021
			c0,0.07,0.22,0.359,0.66,0.868l4.966,5.992v0.282c0,0.028-0.018,0.042-0.053,0.042h-2.185c-3.931-4.58-5.897-6.88-5.897-6.901
			v-1.391l0.021-0.052c0.349,0.049,0.757,0.073,1.223,0.073c2.203,0,3.572-0.715,4.109-2.144c0.084-0.209,0.126-0.425,0.126-0.648
			h-5.981c-0.028,0-0.042-0.014-0.042-0.042c0.663-0.961,1-1.442,1.014-1.442h4.747v-0.021c-0.272-0.55-0.799-0.979-1.579-1.286
			c-0.557-0.181-1.059-0.271-1.505-0.271h-2.655V232.1C234.965,231.145,235.296,230.667,235.316,230.667z"/>
	</g>
</g>
</svg>
