<?xml version="1.0" encoding="utf-8"?>
<!-- Generator: Adobe Illustrator 19.0.0, SVG Export Plug-In . SVG Version: 6.00 Build 0)  -->
<svg version="1.1" id="_x33_0" xmlns="http://www.w3.org/2000/svg" xmlns:xlink="http://www.w3.org/1999/xlink" x="0px" y="0px"
	 viewBox="-334 985 512 512" style="enable-background:new -334 985 512 512;" xml:space="preserve">
<style type="text/css">
	.st0{fill:#2770E1;}
	.st1{fill:#FBA709;}
	.st2{fill:#FFFFFF;}
</style>
<path class="st0" d="M157.1,1209.7c5.6-5.8,12.9-15.6,13.8-27.3c0.7-9.8-3.1-18.9-11.2-27c-6.6-6.6-13.4-10.3-20-11.9
	c5-36.9-1.5-70.4-1.7-71.3c-0.1-0.8-9.8-79.1-96-79.1c-56.5,0-88.9,29.7-99.5,55.2c-7.5,18-5.3,35.4,5.8,46.5
	c9.6,9.6,19.6,13,28.7,13c-2.2,13.7-7.9,27-12,36.5c-0.9,2.1-1.8,4.1-2.5,5.8c-1.5,3.8-1,8,1.4,11.5c3,4.5,8.7,7.5,14.1,7.5h8v32
	c0,4.7,2,9.2,5.4,12.2c2.8,2.5,6.2,3.8,9.8,3.8c0.6,0,1.1,0,1.7-0.1c10.5-1.2,21.3-4.3,31.1-7.9v18.7c-7.1,3.4-20.1,11.2-34.4,26.3
	c-8.6-35-40.1-61-77.6-61c-37.7,0-69.4,26.3-77.7,61.5c-16.3-16.1-33.4-24-42.3-27.3v-10.3c5.9,1,11.5,1.4,16.3,1.4
	c9.7,0,16.5-1.3,17.2-1.5l6.4-1.3V1169c5.7,0,12.9-2.1,15.9-8.1c2-4,1.5-8.8-1.2-12.3l-14.7-22V1089h24v-8c0-88-72.3-88-96-88
	c-22.5,0-96,6.9-96,96c0,72,42.5,107,56,116.3v22.9c-14.5,8.9-56,43-56,140.7c0,118.6,158.4,120,160,120H10c1.6,0,160-1.4,160-120
	c0-36.2-7.8-66.9-17.9-90.8C177.2,1252.6,168.3,1225.1,157.1,1209.7L157.1,1209.7z M-42.7,1054.3c8.7-20.9,36-45.3,84.7-45.3
	c71.6,0,79.7,62.3,80.2,65.6c0.1,0.4,6.5,33.5,1.4,68.4c-10,1.9-18.3,7.5-23.2,12.3l11.3,11.3c1.9-1.9,18.9-17.8,36.7,0
	c4.7,4.7,6.9,9.5,6.5,14.5c-0.6,9.5-10.1,18.7-13.7,21.4l-7.3,5.5l6.4,6.5c2.5,2.5,22.6,24.3,4.3,47.9c-8.6-16.2-17.8-28.2-25-35.2
	l-1.8-1.8l-2.5-0.4c-12.1-2-20-6.3-23.3-12.8c-5.2-10.1,1.4-23.6,1.5-23.7l0.7-1.5l0.1-1.6c2.8-41.9-2.2-67.8-15.6-81.6
	c-12.6-12.9-29.6-12.1-43.3-11.5c-8.5,0.4-16.6,0.8-21-2.2c-16.3-10.9-7.7-26-5.8-28.9l-13.3-8.9c-0.5,0.8-5.1,7.8-6.3,17.4
	c-0.8,6.1,0.1,11.8,2.3,17c-1.9,1.2-4.2,2.5-6.9,3.4c-8.9,3-17.1,0.7-24.8-7.1C-46.7,1077-47.6,1066.1-42.7,1054.3L-42.7,1054.3z
	 M44.5,1240.6l5.5-1.8v-36.4c11.5-5.3,19.5-10.1,20.2-10.5l-8.3-13.7c-0.3,0.2-31.9,19.3-59.8,22.8v-14.1c1.6,0.2,3.2,0.3,4.8,0.3
	c10,0,20.7-3.4,26.3-14.5l-14.3-7.2c-3,6-11.3,6-16.8,5.2V1153h-23.3c0.3-0.8,0.7-1.6,1.1-2.5c5-11.6,12.3-28.4,13.9-46.4
	c2.7-1.2,5.1-2.5,7.3-4c1.4,1.2,3,2.4,4.6,3.6c8.8,5.8,19.9,5.3,30.6,4.8c12.1-0.6,23.5-1.1,31.1,6.7c9.6,9.8,13.4,32.7,11.2,67.8
	c-2.3,5.2-8.2,21.7-0.8,36.4c3.9,7.8,10.7,13.6,20.3,17.4v20.2c0,5.3-2.7,8-8,8H42c-5.3,0-8-2.7-8-8v-11
	C40.4,1242.1,44.5,1240.6,44.5,1240.6L44.5,1240.6z M-206,1385v-16H50v16H-206z M50,1353h-256v-48h54.7c2.5,5.7,5.6,11,9.4,16H-158
	v16H-6v-16h-8.1c3.7-5,6.8-10.3,9.3-16H50V1353z M-159.6,1153H-174v17.3c-9.1,1.3-21.8,1.2-24.8-4.9l-14.3,7.2
	c5.8,11.7,19,14.5,30.3,14.5c3.2,0,6.2-0.2,8.9-0.5v15.4c-11.3,0.9-35,0.7-50.3-14.6l-11.3,11.3c6.5,6.5,14,10.9,21.7,13.9v17.4
	c-2.8,3-9.3,8.6-17.8,9.2c-7.2,0.6-14.6-2.9-22.2-9.8V1137h-8c-2.7,0-16-0.8-16-16c0-14.6,12.3-15.9,16-16l7.9,0l0.1-7.9
	c0-4,1.4-23.6,23.3-24c9.4,15.7,24.5,16,24.7,16h32v42.4L-159.6,1153z M-310,1089c0-72.2,55.9-80,80-80c23,0,75.7,0,79.8,64h-55.6
	c-1.7-0.1-16.2-1.7-16.2-32h-16c0,6.3,0.6,11.8,1.6,16.6c-21.9,2.8-30.7,19.4-32.9,32.3c-11.7,2.7-24.7,11.9-24.7,31.2
	c0,18.9,12.4,28.1,24,31v33C-285.4,1171.2-310,1141.1-310,1089z M-310,1369c0-86.5,34.7-117.8,46.9-126.1
	c9.6,8.2,19.6,12.3,29.7,12.3c0.9,0,1.8,0,2.7-0.1c12.7-0.9,22.1-8.1,27-13c8.7,3.2,29,12.5,45.8,33.8c0.2,4.4,0.6,8.7,1.5,13H-222
	v112h16v24c-18.5-6.8-38.5-19.5-48.6-43.2c-10.3-24-9.4-44.6-7.4-59.8l-15.9-2c-2,15.9-3.4,40.3,8.6,68.2
	c21.1,49.3,74.9,58.7,95.4,60.4v24.2C-204.5,1471-310,1458.7-310,1369z M-158,1473l0.1-48l15.9,0.1v23.9l32,0.1v23.9H-158z
	 M-94,1473v-24c0-9.6-6.4-16-16-16h-16v-8c0-9.6-6.4-16-16-16h-16c-9.6,0-16,6.4-16,16v7.4c-4.2-0.4-9.7-1.2-16-2.7V1401H34v28.8
	c-6.3,1.4-11.8,2.2-16,2.7v-7.4c0-9.4-6.6-16-16-16h-16c-9.4,0-16,6.6-16,16v8h-16c-9.4,0-16,6.6-16,16v24H-94z M-46,1473l0.1-24
	H-14l0.1-24l15.9,0.1v47.9H-46z M18,1472.7v-24.2c20.4-1.8,74.2-11.1,95.4-60.4c9.8-22.8,9.6-42.7,8.6-59.6l-16,0.9
	c0.8,15.1,1,32.8-7.4,52.4c-10.2,23.7-30.2,36.3-48.7,43.2v-24h16v-112H0.3c0.9-4.3,1.4-8.6,1.5-13c5.6-7.2,11.1-13.1,16.3-17.8
	c0.6,13.5,10.2,22.8,23.9,22.8h48c14.1,0,24-9.9,24-24v-12.2c17,20.2,40,63.4,40,124.2C154,1458.7,48.5,1471,18,1472.7L18,1472.7z"
	/>
<path class="st1" d="M-216.3,1107.3l-11.3,11.3c6.8,6.8,14.2,9.4,21.1,9.4c9.1,0,17.3-4.5,22.2-9.4l-11.3-11.4
	C-198.1,1109.7-206.9,1116.8-216.3,1107.3z"/>
<circle class="st1" cx="10" cy="1129" r="8"/>
<g>
	<path class="st2" d="M-45.3,1242.2c-0.4-0.4-1-0.6-1.7-0.6h-12.3c-0.8-4-2.4-7.5-4.6-10.4h16.8c0.7,0,1.2-0.2,1.7-0.6
		c0.4-0.4,0.6-1,0.6-1.7v-7.4c0-0.7-0.2-1.2-0.6-1.7c-0.4-0.4-1-0.6-1.7-0.6h-60c-0.7,0-1.2,0.2-1.7,0.6c-0.4,0.4-0.6,1-0.6,1.7v9.6
		c0,0.6,0.2,1.2,0.7,1.6s1,0.7,1.6,0.7h10.5c10.1,0,16.6,2.7,19.3,8.1h-29.8c-0.7,0-1.2,0.2-1.7,0.6c-0.4,0.4-0.6,1-0.6,1.7v7.4
		c0,0.7,0.2,1.2,0.6,1.7c0.4,0.4,1,0.6,1.7,0.6h30.8c-1.1,3.9-3.5,6.9-7.4,9c-3.9,2.1-9,3.1-15.3,3.1h-8.1c-0.6,0-1.2,0.2-1.6,0.7
		c-0.5,0.5-0.7,1-0.7,1.6v9.2c0,0.6,0.2,1.2,0.6,1.6c9.2,9.8,21.2,23.5,35.9,41.2c0.4,0.6,1,0.9,1.8,0.9H-57c1,0,1.7-0.4,2.1-1.3
		c0.5-0.9,0.4-1.7-0.3-2.5c-14-17.2-25.1-30.1-33.1-38.7c8.2-1,14.8-3.6,19.9-7.9c5.1-4.3,8.2-10,9.3-16.9h12.1
		c0.7,0,1.2-0.2,1.7-0.6c0.4-0.4,0.6-1,0.6-1.7v-7.4C-44.6,1243.2-44.8,1242.7-45.3,1242.2z"/>
</g>
</svg>
