<?xml version="1.0" encoding="utf-8"?>
<!-- Generator: Adobe Illustrator 16.0.0, SVG Export Plug-In . SVG Version: 6.00 Build 0)  -->
<!DOCTYPE svg PUBLIC "-//W3C//DTD SVG 1.1//EN" "http://www.w3.org/Graphics/SVG/1.1/DTD/svg11.dtd">
<svg version="1.1" id="Capa_1" xmlns="http://www.w3.org/2000/svg" xmlns:xlink="http://www.w3.org/1999/xlink" x="0px" y="0px"
	 width="42px" height="42px" viewBox="0 0 42 42" enable-background="new 0 0 42 42" xml:space="preserve">
<g>
	<g>
		<path fill="#2471E2" d="M12.902,26.542l0.012-0.034l0.017-0.034c0.128-0.279,0.336-0.553,0.657-0.867
			c0.07-0.065,0.278-0.272,0.449-0.389l0,0c0.012-0.007,0.023-0.017,0.034-0.024c0.007-0.006,0.012-0.013,0.023-0.013l0,0
			c0.116-0.075,0.255-0.14,0.302-0.161c0.377-0.181,1.192-0.516,1.757-0.747c-0.018-0.007-0.035-0.017-0.057-0.027
			c-0.019-0.006-0.036-0.018-0.053-0.023c-0.483-0.226-1.973-0.826-1.973-0.826l0,0c-0.745-0.319-1.518-0.598-2.303-0.878l0,0
			c-0.141,0.588-1.48,4.468-1.688,5.008l-0.168-3.611c0.058-0.086,0.092-0.182,0.14-0.273l0.559-1.1
			c-0.39,0.326-0.978,0.535-1.634,0.535c-0.64,0-1.217-0.197-1.612-0.512l0.545,1.076c0.046,0.092,0.082,0.193,0.14,0.273
			l-0.168,3.611c-0.21-0.534-1.547-4.42-1.687-5.008l0,0c-0.786,0.28-1.559,0.553-2.304,0.878l0,0c0,0-1.491,0.601-1.973,0.826
			c-0.019,0.006-0.036,0.018-0.053,0.023c-0.041,0.024-0.07,0.034-0.087,0.047l0,0c-0.25,0.145-0.448,0.366-0.571,0.626l0,0
			c0,0,0,0,0,0.009c-0.046,0.093-0.08,0.195-0.098,0.301c-0.197,0.604-0.641,1.953-0.832,2.693
			c-0.022,0.074-0.046,0.157-0.058,0.239l0,0l0,0c-0.012,0.069-0.019,0.145-0.019,0.219c0,0.799,0.646,1.438,1.438,1.438H3.01
			c1.965,0,3.932,0,5.898,0c0.023,0,0.052,0,0.076,0c0.023,0,0.053,0,0.076,0c0.937,0,1.873,0,2.811,0
			c0.244-0.861,0.635-2.07,0.878-2.797C12.786,26.84,12.855,26.648,12.902,26.542z"/>
		<path fill="#2471E2" d="M5.404,18.34c0.396,1.275,1.011,2.089,1.617,2.606c0.943,0.809,1.856,0.896,1.874,0.896
			c0.022,0,0.053,0,0.077,0c0.022,0,0.051,0,0.074,0c0.018,0,0.925-0.088,1.862-0.891c0.611-0.518,1.229-1.332,1.629-2.617
			c0.023,0,0.831,0.413,1.025-1.705c0.086-1.001-0.746-0.796-0.833-0.803c0-0.256,0.053-1.175,0.053-1.385
			c0-2.053-1.67-3.723-3.724-3.723l0,0H9.051H9.045l0,0l0,0c-0.022,0-0.046,0-0.068,0c-0.023,0-0.046,0-0.07,0l0,0l0,0H8.902H8.896
			l0,0l0,0c-2.053,0-3.723,1.67-3.723,3.723c0,0.21,0.052,1.135,0.052,1.385c-0.093,0.004-0.924-0.199-0.832,0.803
			C4.572,18.753,5.38,18.34,5.404,18.34z"/>
		<path fill="#2471E2" d="M41.728,26.907c-0.009-0.134-0.028-0.271-0.047-0.405c0,0-0.078-0.441-0.094-0.512
			c-0.178-0.774-0.657-1.337-1.31-1.781c-0.124-0.083-0.25-0.155-0.373-0.22c-0.166-0.088-2.711-0.923-2.778-0.948
			c0.02,0.091,0.024,0.185,0.027,0.291c0.358,0.251,1.399,1.148,0.927,2.827c0,0-0.753-0.895-1.518-1.006
			c-0.727,1.265-1.966,2.875-2.636,3.295c-0.669-0.42-1.904-2.025-2.635-3.295c-0.765,0.111-1.518,1.006-1.518,1.006
			c-0.473-1.683,0.568-2.576,0.924-2.827c0.006-0.106,0.014-0.2,0.028-0.291c-0.063,0.025-2.61,0.86-2.776,0.948
			c-0.129,0.066-0.256,0.137-0.372,0.22c-0.257,0.171-0.479,0.359-0.677,0.577c0.155,0.063,0.286,0.122,0.392,0.167
			c0.042,0.021,0.164,0.08,0.278,0.15l0,0c0.268,0.161,0.528,0.402,0.813,0.759c0.284,0.359,0.38,0.533,0.427,0.644
			c0.07,0.16,0.13,0.334,0.17,0.505c0.243,0.739,0.646,1.971,0.889,2.841c1.351,0,2.706,0,4.056,0c1.962,0,3.921,0,5.882,0
			c0.584,0,1.083-0.179,1.498-0.615c0.318-0.346,0.414-0.753,0.437-1.195c0.007-0.078,0.012-0.414,0.012-0.414
			S41.728,26.915,41.728,26.907z"/>
		<path fill="#2471E2" d="M29.317,18.914c0.059,0.219,0.101,0.428,0.101,0.622c0,0.066-0.006,0.129-0.018,0.195
			c-0.054,0.184-0.444,0.812-0.511,0.917c0.693,0.747,1.605,0.918,2.504,1.108c0.269,0.053,0.539,0.089,0.829,0.124
			c0.097,0.019,0.189,0.035,0.285,0.055l-0.457,1.338c0,0-0.01,1.954,1.878,3.145h0.013c1.89-1.19,1.877-3.145,1.877-3.145
			l-0.455-1.338c0.096-0.02,0.19-0.036,0.284-0.055c0.292-0.035,0.563-0.07,0.831-0.124c0.899-0.189,1.814-0.361,2.501-1.108
			c-0.065-0.106-0.455-0.733-0.507-0.917c-0.014-0.066-0.021-0.129-0.021-0.195c0-0.196,0.036-0.403,0.104-0.622
			c0.06-0.208,0.123-0.413,0.188-0.628c0.31-0.68,0.474-1.433,0.474-2.232c0-2.956-2.35-5.358-5.27-5.412l0,0h-0.006h-0.007l0,0
			c-2.919,0.054-5.269,2.457-5.269,5.412c0,0.793,0.171,1.552,0.474,2.232C29.194,18.5,29.258,18.706,29.317,18.914z"/>
		<path fill="#F5A706" d="M32.873,31.172L32.873,31.172L32.873,31.172c-0.015-0.104-0.038-0.211-0.073-0.311
			c-0.253-0.97-0.829-2.742-1.095-3.532c-0.027-0.141-0.073-0.272-0.133-0.397c0,0-0.424-0.639-0.743-0.83
			c0,0-0.16-0.086-0.18-0.094c-0.631-0.3-2.581-1.079-2.581-1.079l0,0c-0.975-0.428-1.986-0.786-3.012-1.149l0,0l0,0l0,0l0,0
			c-0.187,0.763-1.932,5.847-2.212,6.558l-0.219-4.727c0.074-0.113,0.128-0.237,0.185-0.355l0.729-1.44
			c-0.511,0.425-1.282,0.697-2.142,0.697c-0.842,0-1.594-0.262-2.104-0.671l0.708,1.406c0.06,0.12,0.113,0.253,0.187,0.358
			l-0.221,4.727c-0.277-0.706-2.024-5.786-2.209-6.56l0,0l0,0l0,0l0,0c-1.028,0.365-2.039,0.731-3.013,1.148l0,0
			c0,0-1.951,0.783-2.582,1.082c-0.02,0.016-0.16,0.079-0.179,0.095c0,0-0.584,0.483-0.744,0.821c0,0-0.105,0.257-0.132,0.397
			c-0.259,0.791-0.836,2.555-1.096,3.529c-0.032,0.101-0.059,0.206-0.072,0.313l0,0l0,0c-0.014,0.095-0.02,0.192-0.02,0.285
			c0,1.043,0.841,1.886,1.885,1.886h1.798c2.576,0,5.145,0,7.719,0c0.033,0,0.067,0,0.1,0l0,0c0.033,0,0.067,0,0.099,0
			c2.575,0,5.143,0,7.72,0h1.796c1.044,0,1.886-0.843,1.886-1.886C32.894,31.363,32.886,31.266,32.873,31.172z"/>
		<path fill="#F5A706" d="M26.315,15.045c0-0.331,0.065-1.54,0.065-1.813c0-2.689-2.181-4.872-4.869-4.872l0,0l0,0h-0.007H21.5l0,0
			l0,0c-0.034,0-0.059,0-0.093,0s-0.06,0-0.094,0l0,0l0,0h-0.006h-0.007l0,0l0,0c-2.687,0-4.87,2.183-4.87,4.872
			c0,0.278,0.066,1.481,0.066,1.813c-0.119,0.006-1.208-0.26-1.088,1.048c0.245,2.766,1.308,2.235,1.335,2.235
			c0.518,1.674,1.327,2.734,2.117,3.412c1.236,1.055,2.43,1.176,2.456,1.176c0.033,0,0.065,0,0.099,0l0,0l0,0
			c0.034,0,0.066,0,0.101,0c0.019,0,1.207-0.114,2.434-1.161c0.8-0.678,1.605-1.747,2.131-3.426c0.033,0,1.088,0.538,1.335-2.235
			C27.523,14.785,26.436,15.052,26.315,15.045z"/>
	</g>
</g>
</svg>
