<?xml version="1.0" encoding="utf-8"?>
<!-- Generator: Adobe Illustrator 23.0.0, SVG Export Plug-In . SVG Version: 6.00 Build 0)  -->
<svg version="1.1" id="Capa_1" xmlns="http://www.w3.org/2000/svg" xmlns:xlink="http://www.w3.org/1999/xlink" x="0px" y="0px"
	 viewBox="0 0 512 512" style="enable-background:new 0 0 512 512;" xml:space="preserve">
<style type="text/css">
	.st0{fill:#F3A70B;}
	.st1{fill:#2F6BE1;}
</style>
<path class="st0" d="M255.1,65.1c5.6,0,10.1-4.5,10.1-10.1V10.1c0-5.6-4.5-10.1-10.1-10.1S245,4.5,245,10.1V55
	C245,60.6,249.5,65.1,255.1,65.1L255.1,65.1z"/>
<path class="st1" d="M501.3,346l-17.8-17.7c-6.3-6.3-14.8-9.8-23.8-9.8c-5.7,0-11.3,1.4-16.2,4.1l-33.5-33.5l1.6-1.6
	c13.6-13.6,13.6-35.8,0-49.4c-4.9-4.9-10.9-8.1-17.5-9.5c0.9-3.1,1.4-6.4,1.4-9.8c0-9.4-3.6-18.1-10.2-24.7
	c-4.9-4.9-10.9-8.1-17.5-9.5c0.9-3.1,1.4-6.4,1.4-9.8c0-9.4-3.6-18.1-10.2-24.7c-5-5-11.1-8.1-17.5-9.5c3.4-11.8,0.5-25.2-8.8-34.5
	c-7.8-7.7-18.3-11-28.4-10l-66.4-12.6c-10.1-1.9-22.8-3.2-30.8,4.1c-0.5,0.5-1,1-1.5,1.6c-12.4-4.5-26.8-1.8-36.7,8.1
	c-6.6,6.6-10.2,15.3-10.2,24.7c0,3.4,0.5,6.7,1.4,9.8c-6.6,1.4-12.7,4.6-17.5,9.5c-6.6,6.6-10.2,15.3-10.2,24.7
	c0,3.4,0.5,6.7,1.4,9.8c-6.6,1.4-12.7,4.6-17.5,9.4c-6.6,6.6-10.2,15.4-10.2,24.7c0,7.2,2.1,14,6.1,19.7c-5,1.7-9.6,4.5-13.4,8.3
	c-13.6,13.6-13.6,35.7,0,49.4l1.6,1.6l-33.5,33.5c-12.5-5.9-27.8-3.7-38.1,6.6l-17.8,17.8c-6.3,6.3-9.8,14.8-9.8,23.8
	c0,9,3.5,17.4,9.8,23.8l22.2,22.2c3.9,3.9,10.3,3.9,14.2,0c3.9-3.9,3.9-10.3,0-14.2l-22.2-22.2c-2.5-2.5-3.9-5.9-3.9-9.5
	c0-3.6,1.4-7,3.9-9.5l17.8-17.8c4.4-4.4,11.3-5.1,16.4-2c0.4,0.5,0.8,1.1,1.3,1.5c0.9,0.9,1.8,1.5,2.9,2l102.1,101.9
	c0.5,1.1,1.2,2.1,2,2.9c0.8,0.8,1.8,1.5,2.8,2c2.2,2.4,3.4,5.6,3.4,8.9c0,3.6-1.4,7-3.9,9.5L151.9,488c-5.3,5.2-13.8,5.2-19,0
	l-22.2-22.2c-3.9-3.9-10.3-3.9-14.2,0s-3.9,10.3,0,14.2l22.2,22.2c6.5,6.5,15.1,9.8,23.7,9.8c8.6,0,17.2-3.3,23.8-9.8l17.8-17.8
	c6.3-6.3,9.8-14.8,9.8-23.8c0-6.4-1.8-12.5-5.1-17.8l37.7-37.7c0,0,0.1-0.1,0.1-0.1c4.3-4.5,16.4-3.6,28-2.8
	c8.3,0.6,17.5,1.2,26.5,0.2l41.3,41.3c-2.7,4.9-4.1,10.4-4.1,16.1c0,9,3.5,17.4,9.8,23.7l17.8,17.8c6.3,6.3,14.8,9.8,23.8,9.8
	c9,0,17.4-3.5,23.8-9.8l107.9-107.8c6.3-6.3,9.8-14.8,9.8-23.8C511.1,360.8,507.6,352.3,501.3,346L501.3,346z M234,103.4l43.7,8.3
	l-26.1,26.1c-4-1.9-9.6-5.6-15.7-11.4c-8.3-8-14.3-17.2-14.8-22.9c0,0,0,0,0,0c0,0,0,0,0,0c0-0.4,0-0.7,0-1
	C222.3,102.2,225.8,101.9,234,103.4L234,103.4z M183,111.6c5.1-5.1,13-5.7,18.8-1.8c3.3,13.7,15,26.1,20.2,31.1
	c3.9,3.7,16.4,14.9,29,18c1.7,2.4,2.6,5.4,2.6,8.4c0,4-1.5,7.7-4.3,10.4c-2.8,2.8-6.5,4.3-10.5,4.3c-4,0-7.7-1.5-10.5-4.3l0,0l0,0
	L183,132.5c-2.8-2.8-4.3-6.5-4.3-10.4C178.7,118.1,180.2,114.4,183,111.6L183,111.6z M156.6,155.6c2.8-2.8,6.5-4.3,10.4-4.3
	c4,0,7.7,1.5,10.5,4.3l36.6,36.5c5.8,5.8,5.8,15.2,0,20.9c-2.8,2.8-6.5,4.3-10.5,4.3s-7.7-1.5-10.5-4.3l0,0l-27.7-27.7
	c0,0-0.1-0.1-0.1-0.1l-8.7-8.7c-2.8-2.8-4.3-6.5-4.3-10.5C152.3,162.1,153.9,158.4,156.6,155.6L156.6,155.6z M130.3,199.5
	c2.8-2.8,6.5-4.3,10.5-4.3c3.9,0,7.6,1.5,10.4,4.2l27.8,27.8c2.8,2.8,4.3,6.5,4.3,10.4c0,4-1.5,7.7-4.3,10.4
	c-2.8,2.8-6.5,4.3-10.5,4.3c-4,0-7.7-1.5-10.5-4.3l-10.1-10.1c0,0,0,0,0,0l-17.6-17.6c-2.8-2.8-4.3-6.5-4.3-10.5
	C126,206,127.5,202.3,130.3,199.5L130.3,199.5z M112.7,252.3c2.8-2.8,6.5-4.3,10.5-4.3c4,0,7.7,1.5,10.5,4.3l10.1,10.1
	c2.8,2.8,4.3,6.5,4.3,10.4s-1.5,7.7-4.3,10.4c-2.8,2.8-6.5,4.3-10.5,4.3c-4,0-7.7-1.5-10.5-4.3l-1.3-1.3c0,0,0,0,0-0.1
	c0,0,0,0-0.1-0.1l-8.7-8.7C107,267.4,107,258.1,112.7,252.3L112.7,252.3z M318,366.8c-3.9-3.9-10.3-3.9-14.2,0l-9,8.9
	c-8.5,8.5-23.9,7.4-38.9,6.4c-16.2-1.1-33-2.3-43.8,8.8L175,428l-92.8-92.6l32.8-32.8c5.4,3.3,11.7,5.1,18.2,5.1
	c9.4,0,18.1-3.6,24.7-10.2c6.6-6.6,10.2-15.3,10.2-24.7c0-0.1,0-0.2,0-0.3c0.1,0,0.2,0,0.3,0c9.3,0,18.1-3.6,24.7-10.2
	c6.6-6.6,10.2-15.3,10.2-24.7c0-0.1,0-0.2,0-0.3c0.1,0,0.2,0,0.3,0c9.3,0,18.1-3.6,24.7-10.2c6.9-6.9,10.3-15.9,10.2-24.9
	c0.1,0,0.2,0,0.3,0c9.4,0,18.1-3.6,24.7-10.2c6.6-6.6,10.2-15.3,10.2-24.7c0-6.5-1.8-12.8-5.1-18.2l28.8-28.8c2.1-2.1,4.8-3.5,7.6-4
	c0.3,0,0.6-0.1,0.9-0.1c4.4-0.6,9.1,0.8,12.5,4.1c5.8,5.8,5.8,15.2,0,20.9l-8.8,8.7c0,0-0.1,0.1-0.1,0.1l-10.1,10.1
	c-3.9,3.9-3.9,10.3,0,14.2c3.9,3.9,10.3,3.9,14.2,0l8.8-8.8c0,0,0,0,0,0l1.3-1.3c5.8-5.7,15.1-5.7,20.9,0.1
	c2.8,2.8,4.3,6.5,4.3,10.4c0,4-1.5,7.7-4.3,10.4l-8.8,8.8c0,0,0,0,0,0l-10.1,10.1c-3.9,3.9-4,10.3,0,14.2c3.9,3.9,10.3,4,14.2,0
	l10.1-10.1c2.8-2.8,6.5-4.3,10.5-4.3c4,0,7.7,1.5,10.5,4.3c2.8,2.8,4.3,6.5,4.3,10.4c0,4-1.5,7.7-4.3,10.4l-17.6,17.6
	c-3.9,3.9-3.9,10.3,0,14.2c2,2,4.5,2.9,7.1,2.9c2.6,0,5.2-1,7.1-3l8.6-8.6c0,0,0.1-0.1,0.2-0.1c2.8-2.8,6.5-4.3,10.5-4.3
	c4,0,7.7,1.5,10.5,4.3c5.8,5.7,5.7,15.1,0,20.9l-8.8,8.7c0,0,0,0,0,0s0,0,0,0l-13.9,13.9c-3.9,3.9-3.9,10.3,0,14.2c2,2,4.5,3,7.1,3
	c2.6,0,5.2-1,7.1-2.9l6.8-6.8l32.6,32.5l-92.8,92.6l-33.2-33.2c2.3-1.5,4.5-3.2,6.6-5.3l9-8.9C321.9,377.1,321.9,370.7,318,366.8
	L318,366.8z M487.1,379.2L379.1,487.1c-2.5,2.5-5.9,3.9-9.5,3.9s-7-1.4-9.5-3.9l-17.8-17.8c-2.5-2.5-3.9-5.9-3.9-9.5
	c0-3.6,1.4-7,3.9-9.5l107.9-107.8c2.5-2.5,5.9-3.9,9.5-3.9c3.6,0,7,1.4,9.5,3.9l17.8,17.7c2.5,2.5,3.9,5.9,3.9,9.5
	C491,373.4,489.6,376.7,487.1,379.2z"/>
<path class="st0" d="M121.4,56.6c2,2,4.5,2.9,7.1,2.9c2.6,0,5.2-1,7.1-3c3.9-3.9,3.9-10.3,0-14.2L98.9,5.7c-3.9-3.9-10.3-3.9-14.2,0
	c-3.9,3.9-3.9,10.3,0,14.2L121.4,56.6z"/>
<path class="st0" d="M381.7,59.5c2.6,0,5.2-1,7.1-2.9l36.7-36.6c3.9-3.9,3.9-10.3,0-14.2c-3.9-3.9-10.3-3.9-14.2,0l-36.7,36.6
	c-3.9,3.9-3.9,10.3,0,14.2C376.6,58.5,379.1,59.5,381.7,59.5z"/>
<path class="st0" d="M62.8,433.2c-3.9,4-3.8,10.3,0.1,14.2l0,0c2,1.9,4.5,2.9,7,2.9c2.6,0,5.2-1,7.2-3c3.9-4,3.8-10.4-0.1-14.3
	C73.1,429.2,66.7,429.2,62.8,433.2z"/>
<path class="st0" d="M342.6,352.3c1.5,0,3.1-0.3,4.5-1.1c5-2.5,7-8.6,4.5-13.5c-2.5-5-8.6-7-13.5-4.5l-0.1,0
	c-5,2.5-6.9,8.5-4.4,13.5C335.4,350.2,338.9,352.3,342.6,352.3L342.6,352.3z"/>
</svg>
