<?xml version="1.0" encoding="utf-8"?>
<!-- Generator: Adobe Illustrator 22.0.0, SVG Export Plug-In . SVG Version: 6.00 Build 0)  -->
<svg version="1.1" id="Layer_1" xmlns="http://www.w3.org/2000/svg" xmlns:xlink="http://www.w3.org/1999/xlink" x="0px" y="0px"
	 viewBox="0 0 512 512" style="enable-background:new 0 0 512 512;" xml:space="preserve">
<style type="text/css">
	.st0{fill:#2471E2;}
	.st1{fill:#F5A706;}
</style>
<path class="st0" d="M444.9,109.8L338.2,3.1c-2-2-4.7-3.1-7.5-3.1h-224C83.1,0,64,19.1,64,42.7v426.7c0,23.5,19.1,42.7,42.7,42.7
	h298.7c23.5,0,42.7-19.1,42.7-42.7v-352C448,114.5,446.9,111.8,444.9,109.8z M341.3,36.4l70.2,70.2h-48.9
	c-11.8,0-21.3-9.6-21.3-21.3V36.4z M426.7,469.3c0,11.8-9.6,21.3-21.3,21.3H106.7c-11.8,0-21.3-9.6-21.3-21.3V42.7
	c0-11.8,9.6-21.3,21.3-21.3H320v64c0,23.5,19.1,42.7,42.7,42.7h64V469.3z"/>
<path class="st1" d="M310.4,313.1c-9.9-7.8-19.3-15.8-25.5-22c-8.1-8.1-15.4-16-21.7-23.5c9.8-30.3,14.1-46,14.1-54.3
	c0-35.4-12.8-42.7-32-42.7c-14.6,0-32,7.6-32,43.7c0,15.9,8.7,35.2,26,57.7c-4.2,12.9-9.2,27.8-14.8,44.6
	c-2.7,8.1-5.6,15.5-8.7,22.4c-2.5,1.1-4.9,2.2-7.3,3.4c-8.5,4.2-16.5,8.1-24,11.6c-34.1,16.1-56.6,26.8-56.6,47.9
	c0,15.3,16.6,24.8,32,24.8c19.8,0,49.8-26.5,71.7-71.1c22.7-9,50.9-15.6,73.2-19.8c17.9,13.7,37.6,26.9,47.1,26.9
	c26.4,0,32-15.3,32-28.1c0-25.2-28.8-25.2-42.7-25.2C337,309.3,325.5,310.6,310.4,313.1z M160,405.3c-6.1,0-10.2-2.9-10.7-3.4
	c0-7.6,22.6-18.2,44.4-28.6c1.4-0.7,2.8-1.3,4.2-2C181.9,394.6,166.1,405.3,160,405.3z M234.7,214.4c0-22.4,6.9-22.4,10.7-22.4
	c7.5,0,10.7,0,10.7,21.3c0,4.5-3,15.8-8.5,33.3C239.1,233.8,234.7,222.7,234.7,214.4z M242.8,329c0.7-1.9,1.3-3.7,1.9-5.6
	c4-11.9,7.5-22.5,10.7-32.1c4.4,4.9,9.2,9.9,14.3,15c2,2,7,6.5,13.6,12.1C270.2,321.2,256.2,324.8,242.8,329z M362.7,334.6
	c0,4.8,0,6.8-9.9,6.8c-2.9-0.6-9.6-4.6-17.9-10.2c3-0.3,5.2-0.5,6.5-0.5C357.1,330.7,361.6,332.2,362.7,334.6z"/>
</svg>
