<?xml version="1.0" encoding="utf-8"?>
<!-- Generator: Adobe Illustrator 16.0.0, SVG Export Plug-In . SVG Version: 6.00 Build 0)  -->
<!DOCTYPE svg PUBLIC "-//W3C//DTD SVG 1.1//EN" "http://www.w3.org/Graphics/SVG/1.1/DTD/svg11.dtd">
<svg version="1.1" id="Layer_1" xmlns="http://www.w3.org/2000/svg" xmlns:xlink="http://www.w3.org/1999/xlink" x="0px" y="0px"
	 width="42px" height="42px" viewBox="0 0 42 42" enable-background="new 0 0 42 42" xml:space="preserve">
<g>
	<g>
		<path fill="#F5A706" d="M13.397,29.908l-5.691,3.104c-0.334,0.182-0.634,0.406-0.914,0.65c3.319,2.797,7.602,4.484,12.282,4.484
			c4.646,0,8.901-1.663,12.21-4.422c-0.305-0.258-0.636-0.49-1.003-0.673l-6.094-3.047c-0.789-0.394-1.286-1.198-1.286-2.078v-2.391
			c0.172-0.194,0.369-0.446,0.578-0.741c0.83-1.173,1.458-2.463,1.894-3.818c0.782-0.241,1.357-0.963,1.357-1.821v-2.552
			c0-0.562-0.25-1.063-0.638-1.415V11.5c0,0,0.758-5.742-7.018-5.742S12.057,11.5,12.057,11.5v3.689
			c-0.388,0.351-0.637,0.853-0.637,1.415v2.552c0,0.672,0.353,1.264,0.882,1.606c0.638,2.775,2.308,4.774,2.308,4.774v2.333
			C14.608,28.717,14.144,29.5,13.397,29.908z"/>
		<g>
			<path fill="#2471E2" d="M19.4,0.003C8.868-0.177,0.183,8.215,0.003,18.748c-0.102,5.971,2.56,11.338,6.797,14.907
				c0.277-0.241,0.575-0.463,0.905-0.643l5.691-3.104c0.747-0.407,1.211-1.19,1.211-2.039v-2.333c0,0-1.67-1.999-2.308-4.774
				c-0.528-0.342-0.882-0.933-0.882-1.606v-2.552c0-0.562,0.249-1.063,0.637-1.415V11.5c0,0-0.758-5.742,7.018-5.742
				c7.776,0,7.017,5.742,7.017,5.742v3.689c0.389,0.351,0.639,0.853,0.639,1.415v2.552c0,0.858-0.576,1.58-1.357,1.821
				c-0.436,1.354-1.064,2.645-1.895,3.818c-0.21,0.295-0.405,0.547-0.577,0.741v2.391c0,0.88,0.498,1.686,1.286,2.078l6.093,3.047
				c0.366,0.183,0.696,0.413,1.001,0.672c4.11-3.429,6.765-8.552,6.864-14.323C38.324,8.868,29.933,0.183,19.4,0.003z"/>
		</g>
	</g>
	<g>
		<polygon fill="#EDDCC7" points="26.514,34.9 26.508,34.905 25.076,40.152 28.421,36.807 		"/>
		<path fill="#D75A4A" d="M40.368,24.86l-0.897-0.897c-0.558-0.558-1.462-0.558-2.021,0l-2.578,2.579l1.907,1.908L40.368,24.86z"/>
		
			<rect x="30.298" y="25.764" transform="matrix(-0.7071 -0.7071 0.7071 -0.7071 31.6268 76.4489)" fill="#F29C21" width="2.697" height="11.821"/>
		<polygon fill="#D6C4B1" points="30.579,38.976 30.585,38.971 28.421,36.807 25.076,40.152 24.981,40.503 		"/>
		<path fill="#A34740" d="M38.944,30.612l2.578-2.577c0.557-0.558,0.557-1.462,0-2.02l-1.153-1.154l-3.59,3.588L38.944,30.612z"/>
		
			<rect x="32.152" y="27.8" transform="matrix(0.7074 0.7068 -0.7068 0.7074 33.6807 -13.9433)" fill="#E18C25" width="3.06" height="11.821"/>
		<path fill="#5E5E5E" d="M24.472,41.732c-0.185,0-0.369-0.069-0.509-0.211c-0.281-0.28-0.281-0.735,0-1.018l1.588-1.587
			c0.282-0.283,0.737-0.283,1.018,0c0.282,0.28,0.282,0.734,0,1.018l-1.588,1.587C24.841,41.663,24.656,41.732,24.472,41.732z"/>
	</g>
</g>
</svg>
