<?xml version="1.0" encoding="utf-8"?>
<!-- Generator: Adobe Illustrator 16.0.0, SVG Export Plug-In . SVG Version: 6.00 Build 0)  -->
<!DOCTYPE svg PUBLIC "-//W3C//DTD SVG 1.1//EN" "http://www.w3.org/Graphics/SVG/1.1/DTD/svg11.dtd">
<svg version="1.1" id="Layer_1" xmlns="http://www.w3.org/2000/svg" xmlns:xlink="http://www.w3.org/1999/xlink" x="0px" y="0px"
	 width="50px" height="50px" viewBox="0 0 50 50" enable-background="new 0 0 50 50" xml:space="preserve">
<path fill="#2471E2" d="M20.773,26.437h8.453v2.817h-8.453V26.437z"/>
<path fill="#F5A706" d="M39.97,29.254h-7.926v1.408c0,0.778-0.63,1.409-1.409,1.409H19.364c-0.779,0-1.409-0.631-1.409-1.409v-1.408
	H10.03c-1.822,0-3.433-1.162-4.009-2.89l-5.066-15.2v30.769c0,2.33,1.896,4.227,4.227,4.227h39.637c2.33,0,4.227-1.896,4.227-4.227
	V11.166l-5.066,15.199C43.401,28.092,41.792,29.254,39.97,29.254z"/>
<path fill="#2471E2" d="M30.635,3.894H19.364c-2.33,0-4.226,1.896-4.226,4.227v1.409H3.379l5.314,15.943
	c0.192,0.576,0.73,0.964,1.337,0.964h7.925v-1.409c0-0.779,0.63-1.409,1.409-1.409h11.271c0.778,0,1.409,0.63,1.409,1.409v1.409
	h7.926c0.607,0,1.145-0.388,1.337-0.964l5.315-15.943h-11.76V8.12C34.862,5.79,32.965,3.894,30.635,3.894z M17.955,9.529V8.12
	c0-0.777,0.631-1.409,1.409-1.409h11.271c0.778,0,1.409,0.632,1.409,1.409v1.409H17.955z"/>
</svg>
