<?xml version="1.0" encoding="utf-8"?>
<!-- Generator: Adobe Illustrator 16.0.0, SVG Export Plug-In . SVG Version: 6.00 Build 0)  -->
<!DOCTYPE svg PUBLIC "-//W3C//DTD SVG 1.1//EN" "http://www.w3.org/Graphics/SVG/1.1/DTD/svg11.dtd">
<svg version="1.1" id="Capa_1" xmlns="http://www.w3.org/2000/svg" xmlns:xlink="http://www.w3.org/1999/xlink" x="0px" y="0px"
	 width="50px" height="50px" viewBox="-20 -20 50 50" enable-background="new -20 -20 50 50" xml:space="preserve">
<g>
	<g>
		<path fill="#F5A706" d="M9.688,1.225H8.115c-0.127-0.627-0.381-1.257-0.63-1.257h2.202c0.693,0,1.255-0.564,1.255-1.257
			c0-0.696-0.562-1.257-1.255-1.257H0.251c-0.693,0-1.257,0.562-1.257,1.257c0,0.693,0.564,1.257,1.257,1.257h2.705
			c0.967,0.02,1.873,0.483,2.454,1.257H0.251c-0.693,0-1.257,0.564-1.257,1.26c0,0.693,0.564,1.257,1.257,1.257H5.41
			c-0.127,0-0.254,0.376-0.505,0.566C4.39,4.813,3.677,5.067,2.957,4.999H0.251c-0.513,0.059-0.947,0.4-1.133,0.882
			c-0.183,0.49-0.088,1.045,0.251,1.445l6.731,6.413c0.231,0.239,0.549,0.371,0.881,0.381c0.366,0.015,0.718-0.151,0.942-0.439
			c0.464-0.508,0.435-1.289-0.063-1.763L3.396,7.704C4.651,7.616,5.835,7.079,6.73,6.193C7.342,5.47,7.813,4.638,8.115,3.742h1.572
			c0.693,0,1.255-0.564,1.255-1.257C10.942,1.789,10.381,1.225,9.688,1.225z"/>
		<g>
			<path fill="#2471E2" d="M4.905,26.195c-6.162,0-12.515-3.208-16.477-8.364c-0.383-0.581-0.225-1.362,0.354-1.748
				c0.503-0.332,1.174-0.259,1.597,0.176c3.457,4.526,9.182,7.422,14.526,7.422c7.8,0,16.921-6.104,18.054-15.977
				c0.122-0.69,0.742-1.177,1.445-1.133c0.679,0.127,1.143,0.759,1.064,1.445C24.15,19.213,13.774,26.195,4.905,26.195z"/>
			<path fill="#2471E2" d="M-14.277,3.427h-0.188c-0.681-0.127-1.147-0.759-1.069-1.445C-14.214-9.215-3.835-16.195,5.032-16.195
				c6.165,0,12.517,3.206,16.477,8.364c0.483,0.498,0.474,1.294-0.024,1.777c-0.498,0.486-1.289,0.476-1.777-0.022
				c-0.054-0.056-0.107-0.117-0.146-0.183c-3.457-4.529-9.18-7.422-14.529-7.422c-7.8,0-16.919,6.101-18.049,15.974
				C-13.11,2.926-13.64,3.402-14.277,3.427z"/>
		</g>
	</g>
	<g>
		<polygon fill="#F5A706" points="24.341,-0.472 30,7.641 18.74,7.641 		"/>
		<polygon fill="#F5A706" points="-8.806,2.357 -14.402,10.468 -20,2.357 		"/>
	</g>
</g>
</svg>
