<?xml version="1.0" encoding="utf-8"?>
<!-- Generator: Adobe Illustrator 16.0.0, SVG Export Plug-In . SVG Version: 6.00 Build 0)  -->
<!DOCTYPE svg PUBLIC "-//W3C//DTD SVG 1.1//EN" "http://www.w3.org/Graphics/SVG/1.1/DTD/svg11.dtd">
<svg version="1.1" id="Layer_1" xmlns="http://www.w3.org/2000/svg" xmlns:xlink="http://www.w3.org/1999/xlink" x="0px" y="0px"
	 width="50px" height="50px" viewBox="0 0 50 50" enable-background="new 0 0 50 50" xml:space="preserve">
<g>
	<path fill-rule="evenodd" clip-rule="evenodd" fill="#FEAE54" d="M32.506,4.851c0.186,0.625-0.597,1.538,0.586,1.973
		c0.543,0.2,0.855,0.258,1.227-0.301c0.386-0.58,0.929-1.062,1.442-1.544c0.429-0.402,0.846-0.695,1.528-0.279
		c0.658,0.402,0.839,0.881,0.689,1.547c-0.145,0.646-0.27,1.319-0.553,1.908c-0.293,0.609-0.183,0.952,0.306,1.383
		c0.567,0.5,0.915,0.264,1.373-0.128c0.536-0.459,1.178-0.766,1.822-1.069c0.65-0.306,1.061-0.093,1.527,0.365
		c0.49,0.481,0.442,0.931,0.15,1.446c-0.327,0.577-0.63,1.172-0.999,1.722c-0.285,0.427-0.745,0.675-0.231,1.346
		c0.507,0.663,0.91,0.662,1.552,0.327c0.631-0.33,1.351-0.376,2.042-0.521c0.709-0.149,0.957,0.229,1.27,0.701
		c0.33,0.5,0.307,0.933-0.096,1.347c-0.521,0.537-1.013,1.115-1.601,1.567c-0.509,0.392-0.692,0.711-0.397,1.344
		c0.276,0.593,0.616,0.661,1.187,0.519c0.733-0.182,1.478-0.111,2.23,0.002c0.651,0.099,0.888,0.465,1.074,1.026
		c0.196,0.591-0.042,0.938-0.461,1.286c-0.617,0.513-1.301,0.925-2.056,1.156c-0.654,0.2-0.656,0.599-0.624,1.141
		c0.036,0.601,0.354,0.731,0.88,0.802c0.655,0.088,1.293,0.299,1.938,0.458c0.657,0.161,0.95,0.573,0.962,1.256
		c0.013,0.72-0.277,1.208-0.953,1.417c-0.634,0.196-1.279,0.379-1.934,0.479c-0.512,0.079-0.845,0.197-0.899,0.8
		c-0.052,0.58,0.082,0.905,0.671,1.134c0.65,0.252,1.249,0.651,1.849,1.021c0.475,0.293,0.84,0.615,0.619,1.316
		c-0.211,0.667-0.473,1.04-1.246,1.131c-0.762,0.09-1.491,0.048-2.226-0.065c-0.545-0.084-0.828,0.077-1.037,0.604
		c-0.202,0.509-0.182,0.85,0.287,1.172c0.62,0.426,1.154,0.946,1.612,1.552c0.348,0.46,0.565,0.854,0.21,1.452
		c-0.347,0.583-0.749,0.816-1.417,0.737c-0.755-0.089-1.491-0.272-2.146-0.617c-0.679-0.356-0.958-0.007-1.327,0.442
		c-0.371,0.451-0.314,0.772,0.079,1.166c0.505,0.507,0.783,1.167,1.103,1.8c0.328,0.649,0.238,1.124-0.281,1.665
		c-0.537,0.557-1.012,0.432-1.547,0.131c-0.579-0.324-1.18-0.628-1.704-1.027c-0.451-0.343-0.782-0.482-1.302-0.093
		c-0.559,0.419-0.54,0.806-0.286,1.385c0.264,0.603,0.409,1.263,0.561,1.908c0.144,0.615,0.002,1.099-0.606,1.473
		c-0.617,0.38-1.101,0.281-1.567-0.165c-0.511-0.486-1.038-0.968-1.469-1.52c-0.35-0.447-0.609-0.719-1.217-0.394
		c-0.517,0.276-0.866,0.442-0.685,1.188c0.173,0.706,0.067,1.487,0.038,2.234c-0.023,0.61-0.37,0.961-0.98,1.115
		c-0.607,0.153-1.072,0.023-1.39-0.514c-0.381-0.642-0.771-1.282-1.089-1.955c-0.211-0.447-0.354-0.824-0.98-0.667
		c-0.522,0.132-0.959,0.277-0.977,0.918c-0.021,0.806-0.278,1.551-0.585,2.284c-0.21,0.505-0.516,0.782-1.125,0.781
		c-0.632-0.002-1.006-0.22-1.242-0.802c-0.283-0.7-0.579-1.417-0.572-2.158c0.008-0.846-0.521-0.885-1.1-1.028
		c-0.724-0.18-0.805,0.322-1.005,0.792c-0.228,0.533-0.517,1.043-0.819,1.539c-0.36,0.593-0.771,1.044-1.612,0.804
		c-0.812-0.231-1.017-0.764-1.007-1.491c0.008-0.624-0.031-1.255,0.046-1.87c0.074-0.589-0.092-0.879-0.648-1.148
		c-0.667-0.322-0.857,0.083-1.191,0.465c-0.492,0.561-1.041,1.072-1.581,1.589c-0.473,0.453-0.948,0.327-1.478,0.038
		c-0.523-0.285-0.734-0.663-0.595-1.219c0.191-0.764,0.354-1.545,0.646-2.271c0.239-0.593,0.063-0.895-0.389-1.253
		c-0.489-0.389-0.822-0.332-1.296,0.042c-0.548,0.433-1.2,0.736-1.811,1.088c-0.561,0.322-1.028,0.332-1.541-0.202
		c-0.486-0.506-0.564-0.928-0.243-1.536c0.33-0.626,0.582-1.308,1.086-1.81c0.477-0.476,0.464-0.818,0.062-1.361
		c-0.426-0.577-0.795-0.565-1.357-0.275c-0.591,0.305-1.252,0.418-1.907,0.557c-0.656,0.139-1.077,0.057-1.453-0.563
		c-0.396-0.65-0.311-1.115,0.16-1.664c0.437-0.51,0.882-0.999,1.435-1.375c0.51-0.348,0.722-0.69,0.415-1.345
		c-0.283-0.604-0.662-0.667-1.198-0.536c-0.701,0.171-1.396,0.09-2.105,0.023c-0.693-0.065-1.012-0.378-1.205-1.021
		c-0.194-0.649,0.071-1.006,0.545-1.365c0.569-0.433,1.172-0.803,1.838-1.042c0.593-0.214,0.881-0.518,0.756-1.196
		c-0.12-0.651-0.445-0.918-1.094-0.929c-0.89-0.014-1.727-0.289-2.487-0.739c-0.84-0.497-0.838-1.508,0.009-1.988
		c0.841-0.477,1.77-0.747,2.734-0.788c0.614-0.026,0.757-0.361,0.833-0.863c0.076-0.504,0.025-0.888-0.551-1.062
		c-0.766-0.23-1.427-0.666-2.071-1.132c-0.486-0.352-0.699-0.745-0.512-1.383C2,18.835,2.319,18.482,2.929,18.449
		c0.704-0.038,1.417-0.087,2.115-0.014c0.557,0.059,0.962,0.228,1.272-0.514c0.316-0.755-0.022-1.021-0.52-1.403
		c-0.491-0.377-0.906-0.855-1.345-1.298c-0.501-0.505-0.583-1.018-0.181-1.67c0.378-0.614,0.823-0.722,1.468-0.563
		c0.646,0.159,1.312,0.241,1.906,0.564c0.473,0.256,0.849,0.376,1.267-0.188c0.417-0.563,0.474-0.955,0.008-1.518
		c-0.417-0.505-0.704-1.124-1.018-1.708c-0.303-0.563-0.299-1.066,0.21-1.576c0.5-0.501,0.975-0.564,1.556-0.228
		c0.539,0.313,1.107,0.58,1.612,0.939c0.478,0.34,0.807,0.737,1.483,0.209c0.69-0.538,0.336-0.991,0.135-1.509
		c-0.227-0.584-0.342-1.193-0.482-1.801c-0.158-0.687,0.046-1.047,0.615-1.427c0.627-0.419,1.087-0.255,1.546,0.17
		c0.487,0.452,1.016,0.887,1.385,1.426c0.409,0.596,0.79,0.695,1.453,0.439c0.72-0.277,0.669-0.778,0.532-1.307
		c-0.187-0.713-0.019-1.401,0.02-2.102c0.037-0.658,0.402-0.888,0.981-1.095c0.663-0.236,1.041-0.002,1.353,0.5
		c0.372,0.599,0.783,1.189,1.042,1.837c0.265,0.661,0.627,0.846,1.324,0.782c0.803-0.073,0.752-0.589,0.817-1.134
		c0.088-0.746,0.316-1.456,0.626-2.146c0.217-0.482,0.531-0.684,1.059-0.689c0.559-0.006,0.95,0.141,1.188,0.691
		c0.333,0.771,0.599,1.556,0.646,2.395c0.03,0.537,0.203,0.846,0.803,0.873c0.525,0.023,0.954,0.066,1.193-0.577
		c0.229-0.616,0.585-1.192,0.935-1.755c0.355-0.572,0.695-1.046,1.593-0.757c0.854,0.275,0.947,0.82,0.977,1.507
		C32.518,4.136,32.506,4.47,32.506,4.851z M25.491,45.051c7.33-0.382,13.08-3.742,16.795-10.404
		c1.341-2.405,1.276-2.345-1.281-3.358c-1.194-0.474-1.71-0.29-2.278,0.877c-2.563,5.27-6.89,8.243-12.681,8.53
		c-6.033,0.299-10.772-2.309-13.901-7.585c-1.403-2.366-1.369-2.335-3.962-1.392c-0.983,0.357-1.057,0.816-0.667,1.677
		C10.706,40.442,17.254,44.871,25.491,45.051z M25.383,6.369C21.394,6.4,17.83,7.479,14.576,9.607
		c-2.147,1.404-2.156,1.392-0.394,3.303c0.113,0.123,0.234,0.24,0.33,0.375c0.56,0.788,1.076,0.88,1.935,0.244
		c4.873-3.605,11.337-3.841,16.547-0.693c2.267,1.37,2.226,1.334,3.98-0.67c0.777-0.889,0.549-1.374-0.295-1.979
		C33.268,7.737,29.483,6.442,25.383,6.369z M44.505,25.857c-0.004-4.278-1.22-8.157-3.443-11.224
		c-1.906-2.629-1.888-2.61-4.149-0.334c-0.642,0.645-0.789,1.082-0.117,1.853c2.639,3.032,3.713,6.599,3.434,10.604
		c-0.201,2.876-0.159,2.843,2.611,3.615c0.847,0.235,1.163-0.047,1.298-0.792C44.374,28.271,44.564,26.956,44.505,25.857z
		 M5.959,25.922c0.035,0.553,0.027,1.349,0.143,2.126c0.385,2.602,0.402,2.6,2.904,1.883c1.639-0.471,1.659-0.513,1.405-2.138
		c-0.598-3.825,0.167-7.349,2.384-10.537c1.547-2.224,1.52-2.184-0.332-4.082c-0.816-0.836-1.327-0.666-2,0.133
		C7.442,16.889,5.999,21.026,5.959,25.922z M38.983,25.772c0.044-1.577-0.214-3.001-0.606-4.409
		c-0.213-0.764-0.584-0.924-1.255-0.46c-1.915,1.322-3.838,2.632-5.769,3.929c-0.807,0.542-0.861,1.077-0.047,1.63
		c1.923,1.309,3.864,2.592,5.779,3.912c0.759,0.522,1.146,0.249,1.334-0.53C38.753,28.472,39.067,27.093,38.983,25.772z
		 M28.029,39.153c2.711-0.598,5.181-1.97,7.259-4.052c0.934-0.937,0.917-1.105-0.225-1.668c-1.937-0.954-3.883-1.892-5.834-2.816
		c-1.194-0.566-1.583-0.348-1.688,0.955c-0.181,2.234-0.328,4.472-0.505,6.707C26.987,38.898,27.167,39.257,28.029,39.153z
		 M11.482,25.697c-0.069,1.418,0.182,2.758,0.516,4.096c0.25,1,0.726,1.082,1.507,0.545c1.849-1.272,3.705-2.535,5.567-3.786
		c0.889-0.598,0.82-1.141-0.023-1.708c-1.896-1.276-3.805-2.536-5.672-3.854c-0.833-0.587-1.165-0.296-1.366,0.553
		C11.682,22.921,11.391,24.301,11.482,25.697z M23.472,38.124c-0.169-2.246-0.328-4.396-0.494-6.547
		c-0.094-1.229-0.469-1.448-1.605-0.9c-1.98,0.955-3.938,1.959-5.932,2.884c-0.934,0.434-0.967,0.86-0.264,1.551
		c1.964,1.932,4.219,3.34,6.91,4.013C23.434,39.461,23.511,39.406,23.472,38.124z M27.098,12.989
		c0.146,2.323,0.278,4.647,0.449,6.969c0.049,0.67,0.263,1.339,1.161,0.919c2.259-1.056,4.496-2.158,6.741-3.243
		c0.557-0.269,0.601-0.592,0.175-1.059c-2.054-2.247-4.567-3.706-7.513-4.435C27.394,11.962,26.955,12.156,27.098,12.989z
		 M23.281,14.396c-0.011-0.001-0.022-0.001-0.034-0.002c0.018-0.291,0.033-0.582,0.054-0.872c0.112-1.523,0.042-1.579-1.45-1.183
		c-2.639,0.702-4.865,2.084-6.797,4.002c-0.727,0.722-0.636,1.118,0.261,1.539c2.033,0.952,4.053,1.931,6.058,2.941
		c0.974,0.491,1.395,0.175,1.473-0.833C22.991,18.124,23.136,16.26,23.281,14.396z M30.04,25.663
		c-0.014-2.691-2.137-4.814-4.816-4.818c-2.706-0.005-5.004,2.268-4.942,4.886c0.063,2.665,2.367,4.893,5.014,4.85
		C27.922,30.538,30.054,28.328,30.04,25.663z"/>
	<path fill-rule="evenodd" clip-rule="evenodd" fill="#FEAF55" d="M25.167,29.927c-2.428-0.013-4.239-1.848-4.221-4.279
		c0.017-2.357,1.981-4.304,4.297-4.259c2.357,0.045,4.268,2,4.238,4.339C29.45,28.142,27.604,29.939,25.167,29.927z M25.12,28.631
		c1.374,0,2.209-0.65,2.758-1.646c0.523-0.947,0.385-1.901-0.168-2.837c-0.492-0.833-1.592-1.001-2.015-1.93
		c-0.061-0.133-0.967-0.111-1.017,0.018c-0.367,0.958-1.482,1.16-1.917,2.022c-0.485,0.96-0.538,1.931-0.02,2.86
		C23.28,28.085,24.12,28.651,25.12,28.631z"/>
</g>
</svg>
