<?xml version="1.0" encoding="utf-8"?>
<!-- Generator: Adobe Illustrator 23.0.0, SVG Export Plug-In . SVG Version: 6.00 Build 0)  -->
<svg version="1.1" id="Capa_1" xmlns="http://www.w3.org/2000/svg" xmlns:xlink="http://www.w3.org/1999/xlink" x="0px" y="0px"
	 viewBox="0 0 512 512" style="enable-background:new 0 0 512 512;" xml:space="preserve">
<style type="text/css">
	.st0{fill:#FAA018;}
	.st1{fill:#1F78E1;}
	.st2{fill:#2F6BE1;}
</style>
<g>
	<g>
		<g>
			<path class="st0" d="M430.8,86.6c-49.2-51.5-124.7-59.4-180.6-28.4c-4.8,2.7-6.6,8.8-3.9,13.6c2.7,4.8,8.8,6.6,13.6,3.9
				c51.1-28.4,115.4-18.2,156.4,24.7c42.2,44.8,47,111.6,14.3,161.1c-45,68.4-142.2,78.7-200.5,20.4
				c-39.3-39.3-50.7-102.6-22.3-154.1c2.7-4.8,0.9-10.9-3.9-13.6c-4.8-2.7-10.9-0.9-13.6,3.9c-0.6,1.1-1.7,3.2-2.8,5.3h0
				C158.5,182.8,171.7,251.8,216,296c67.1,67.2,179.3,55.5,231.3-23.5C484.6,215.9,480.1,138.9,430.8,86.6z"/>
		</g>
	</g>
</g>
<path class="st1" d="M456.4,55.6c-74.1-74.1-194.7-74.1-268.7,0c-66.6,66.6-73.8,171.1-19.5,245.9L137,332.6
	c-10.9-5.2-24.7-3.5-34.2,5.9l-88.2,88.2c-19.5,19.5-19.6,51.2,0,70.7c19.5,19.6,51.2,19.6,70.7,0l88.2-88.2
	c9.4-9.4,11.1-23.2,5.9-34.2l31.2-31.2c74.8,54.3,179.2,47.1,245.9-19.5C530.5,250.2,530.5,129.7,456.4,55.6z M159.4,395l-88.2,88.2
	c-11.7,11.7-30.7,11.7-42.4,0c-11.7-11.7-11.7-30.7,0-42.4l88.2-88.2c3.9-3.9,10.2-3.9,14.1,0l28.3,28.3
	C163.3,384.8,163.3,391.1,159.4,395z M166.5,359.7l-14.1-14.1l28.5-28.5c2.2,2.5,4.5,4.9,6.9,7.3c2.4,2.4,4.8,4.6,7.3,6.9
	L166.5,359.7z M442.3,310.2c-66.3,66.3-173.6,66.8-240.5,0c-66.7-66.7-66.3-174.1,0-240.5c66.3-66.3,174.2-66.3,240.5,0
	C508.6,136,508.6,243.9,442.3,310.2z"/>
<g>
	<g>
		<g>
			<path class="st2" d="M230.4,84.1c-0.1-0.1-0.1-0.2-0.2-0.3c-3.9-3.9-10.2-3.9-14.2,0c-3.9,3.9-3.9,10.2,0,14.2
				c0.1,0.1,0.2,0.2,0.3,0.3c3.9,3.7,10.1,3.6,13.9-0.3C233.9,94.2,234,88,230.4,84.1z"/>
		</g>
	</g>
</g>
<image style="overflow:visible;" width="40" height="41" xlink:href="../../../Users/vedan/Desktop/index.jpg"  transform="matrix(1 0 0 1 -353 7.8898)">
</image>
</svg>
